<svg width="780" height="662" viewBox="0 0 780 662" fill="none" xmlns="http://www.w3.org/2000/svg">
<path d="M765.23 237.309C766.45 237.349 767.677 237.342 768.91 237.289C772.25 237.136 772.35 236.489 769.21 235.349C768.657 235.149 768.06 234.982 767.42 234.849C738.313 228.882 718.563 224.892 708.17 222.879C703.05 221.879 700.98 219.539 699.03 214.549C689.77 190.889 679.28 168.959 664.74 147.519C649.667 125.292 631.34 104.326 609.76 84.6189C561.1 40.179 500.98 12.759 435.66 4.21896C371.89 -4.12104 310.09 3.36896 251.77 31.099C176.67 66.809 117.94 126.609 85.69 203.479C82.3 211.549 80.9 220.939 70.94 223.019C52.22 226.932 33.4833 230.752 14.73 234.479C13.24 234.769 7.82997 236.039 8.09997 237.089C8.13169 237.203 8.20049 237.303 8.29501 237.372C8.38954 237.441 8.50415 237.475 8.61997 237.469C15.36 237.189 20.0666 237.049 22.74 237.049C268.207 236.996 513.67 237.009 759.13 237.089C759.177 237.089 761.21 237.162 765.23 237.309Z" stroke="#808080" stroke-width="2"/>
<path d="M778.24 246.479C778.24 246.421 778.229 246.364 778.206 246.311C778.184 246.257 778.152 246.209 778.111 246.168C778.07 246.127 778.022 246.095 777.968 246.072C777.915 246.05 777.858 246.039 777.8 246.039H1.43999C1.3233 246.039 1.21138 246.085 1.12887 246.168C1.04635 246.25 1 246.362 1 246.479V416.339C1 416.456 1.04635 416.568 1.12887 416.65C1.21138 416.733 1.3233 416.779 1.43999 416.779H777.8C777.858 416.779 777.915 416.768 777.968 416.745C778.022 416.723 778.07 416.691 778.111 416.65C778.152 416.609 778.184 416.561 778.206 416.507C778.229 416.454 778.24 416.397 778.24 416.339V246.479Z" stroke="#808080" stroke-width="2"/>
<path d="M120.08 519.449C162.21 577.699 218.77 621.639 287.7 643.509C384.13 674.109 481.48 662.009 566.79 608.559C627.31 570.649 671.9 515.219 697.86 448.749C700.37 442.309 701.02 439.189 707.67 437.949C717.323 436.142 736.433 432.269 765 426.329C765.02 426.319 773.27 424.319 770.51 423.559C769.12 423.169 766.35 423.779 764.81 423.779C514.23 423.786 263.65 423.782 13.07 423.769C9.97005 423.769 9.83338 424.406 12.66 425.679C12.96 425.819 13.26 425.919 13.56 425.979C32.8134 429.906 52.0767 433.802 71.35 437.669C75.59 438.519 79.38 440.339 80.8 444.249C91.02 472.289 104.113 497.356 120.08 519.449Z" stroke="#808080" stroke-width="2"/>
<path d="M110.37 195.439C106.67 203.359 103.367 211.446 100.46 219.699C100.407 219.849 100.391 220.01 100.414 220.168C100.436 220.326 100.495 220.476 100.587 220.606C100.679 220.736 100.801 220.843 100.942 220.916C101.084 220.99 101.241 221.028 101.4 221.029H679.01C679.17 221.029 679.329 220.99 679.471 220.916C679.613 220.842 679.736 220.735 679.828 220.603C679.92 220.472 679.98 220.32 680.001 220.161C680.022 220.002 680.005 219.84 679.95 219.689C642.69 116.429 546.16 39.3289 437.99 23.2789C315.59 5.11895 196.99 58.0789 129.34 161.369C122.2 172.269 115.877 183.626 110.37 195.439Z" stroke="#808080" stroke-width="2"/>
<path d="M412.58 68.449C412.58 62.4948 410.215 56.7846 406.004 52.5744C401.794 48.3642 396.084 45.999 390.13 45.999C384.176 45.999 378.466 48.3642 374.255 52.5744C370.045 56.7846 367.68 62.4948 367.68 68.449C367.68 71.3971 368.261 74.3164 369.389 77.0402C370.517 79.764 372.171 82.2388 374.255 84.3235C376.34 86.4082 378.815 88.0618 381.539 89.1901C384.262 90.3183 387.182 90.899 390.13 90.899C393.078 90.899 395.997 90.3183 398.721 89.1901C401.445 88.0618 403.92 86.4082 406.004 84.3235C408.089 82.2388 409.743 79.764 410.871 77.0402C411.999 74.3164 412.58 71.3971 412.58 68.449Z" stroke="#808080" stroke-width="2"/>
<path d="M361.69 68.469C361.69 64.1061 359.957 59.922 356.872 56.837C353.787 53.7521 349.603 52.019 345.24 52.019C340.877 52.019 336.693 53.7521 333.608 56.837C330.523 59.922 328.79 64.1061 328.79 68.469C328.79 72.8318 330.523 77.0159 333.608 80.1009C336.693 83.1858 340.877 84.919 345.24 84.919C349.603 84.919 353.787 83.1858 356.872 80.1009C359.957 77.0159 361.69 72.8318 361.69 68.469Z" stroke="#808080" stroke-width="2"/>
<path d="M451.49 68.439C451.49 66.2787 451.065 64.1396 450.238 62.1438C449.411 60.148 448.199 58.3346 446.672 56.807C445.144 55.2795 443.331 54.0678 441.335 53.2411C439.339 52.4144 437.2 51.989 435.04 51.989C430.677 51.989 426.493 53.7221 423.408 56.807C420.323 59.892 418.59 64.0761 418.59 68.439C418.59 70.5992 419.016 72.7383 419.842 74.7341C420.669 76.7299 421.881 78.5433 423.408 80.0709C424.936 81.5984 426.749 82.8101 428.745 83.6368C430.741 84.4635 432.88 84.889 435.04 84.889C437.2 84.889 439.339 84.4635 441.335 83.6368C443.331 82.8101 445.144 81.5984 446.672 80.0709C448.199 78.5433 449.411 76.7299 450.238 74.7341C451.065 72.7383 451.49 70.5992 451.49 68.439Z" stroke="#808080" stroke-width="2"/>
<path d="M231.1 149.729C228.72 129.199 199.1 128.869 198.06 152.549C197.64 162.309 196.13 176.459 208.13 180.119C215.34 182.319 228.71 180.809 230.55 171.529C231.843 164.956 232.027 157.689 231.1 149.729Z" stroke="#808080" stroke-width="2"/>
<path d="M260.24 135.999C252.83 134.429 241.4 133.989 239.25 143.779C236.08 158.229 247.71 159.109 257.54 161.579C257.761 161.638 257.957 161.767 258.1 161.949C260.687 165.389 261.13 168.782 259.43 172.129C255.15 180.549 244.5 171.019 239.73 175.999C239.546 176.189 239.445 176.444 239.449 176.708C239.453 176.972 239.561 177.224 239.75 177.409C245.15 182.679 259.79 182.469 264.24 175.869C266.287 172.829 267.053 169.286 266.54 165.239C265.61 157.959 259.47 155.679 253.15 154.569C249.2 153.879 247.01 150.619 245.67 147.079C245.586 146.86 245.586 146.615 245.67 146.389C247.023 142.676 249.56 140.742 253.28 140.589C255.95 140.479 259.6 142.569 262.89 139.919C263.029 139.807 263.136 139.66 263.2 139.493C263.263 139.326 263.28 139.145 263.25 138.969C262.97 137.356 261.967 136.366 260.24 135.999Z" stroke="#808080" stroke-width="2"/>
<path d="M423.65 139.739C423.546 139.902 423.49 140.093 423.49 140.289C423.483 151.256 423.49 162.379 423.51 173.659C423.52 180.819 429.85 181.569 429.88 174.239C429.9 170.152 430.043 166.102 430.31 162.089C430.32 161.932 430.367 161.779 430.446 161.644C430.526 161.508 430.637 161.394 430.769 161.309C430.902 161.224 431.052 161.172 431.209 161.156C431.365 161.14 431.523 161.162 431.67 161.219C439.17 164.179 441.66 169.749 445.39 176.439C447.12 179.559 449.31 181.749 452.88 179.759C452.997 179.693 453.099 179.605 453.181 179.5C453.264 179.394 453.324 179.274 453.36 179.146C453.395 179.017 453.404 178.883 453.387 178.752C453.37 178.62 453.327 178.493 453.26 178.379L444.26 162.879C444.143 162.678 444.1 162.442 444.14 162.211C444.181 161.981 444.301 161.771 444.48 161.619C450.91 156.129 454.38 147.659 448.94 139.979C444.95 134.349 437.06 135.019 430.37 135.279C426.77 135.419 425.54 136.869 423.65 139.739Z" stroke="#808080" stroke-width="2"/>
<path d="M490.91 136.369C487.32 130.869 476.55 147.779 475.11 149.779C464.98 163.899 468 141.099 466.74 138.599C465.107 135.332 463.19 135.096 460.99 137.889C460.854 138.064 460.78 138.282 460.78 138.509L460.76 176.829C460.76 177.009 460.803 177.176 460.89 177.329C463.24 181.419 466.52 179.929 466.94 176.099C467.46 171.379 466.45 165.929 468.72 161.349C468.808 161.17 468.948 161.021 469.123 160.923C469.298 160.825 469.499 160.782 469.7 160.799C474.47 161.209 480.22 172.479 483.25 177.559C484.923 180.359 487.227 181.079 490.16 179.719C490.288 179.659 490.402 179.574 490.494 179.467C490.586 179.36 490.655 179.235 490.696 179.1C490.736 178.965 490.748 178.823 490.73 178.683C490.711 178.544 490.664 178.409 490.59 178.289L478.34 158.459C478.211 158.253 478.165 158.003 478.21 157.759C479.18 152.309 485.55 145.229 490.9 137.489C491.013 137.323 491.074 137.128 491.076 136.929C491.077 136.729 491.02 136.534 490.91 136.369Z" stroke="#808080" stroke-width="2"/>
<path d="M339.85 147.129C339.991 147.182 340.119 147.265 340.224 147.372C340.329 147.479 340.41 147.608 340.46 147.749C342.85 154.699 346.41 168.649 352.18 172.869C353.627 173.929 355 173.842 356.3 172.609C361.45 167.729 364.29 156.739 366.57 150.059C366.93 149.012 367.36 147.992 367.86 146.999C368.707 145.359 369.33 145.439 369.73 147.239C369.857 147.812 369.917 148.409 369.91 149.029C369.837 157.616 369.993 166.196 370.38 174.769C370.5 177.402 371.567 179.089 373.58 179.829C373.818 179.917 374.081 179.911 374.315 179.813C374.549 179.714 374.736 179.531 374.84 179.299C375.793 177.146 376.253 175.139 376.22 173.279C376.08 164.912 375.723 156.559 375.15 148.219C374.9 144.489 375.09 141.519 373.03 138.209C369.48 132.539 365.26 136.459 363.68 140.989C360.827 149.202 357.93 157.412 354.99 165.619C354.377 167.319 353.75 167.326 353.11 165.639C350.283 158.212 347.583 150.679 345.01 143.039C342.98 137.029 340.53 133.229 333.69 137.079C333.541 137.161 333.415 137.28 333.326 137.424C333.236 137.568 333.186 137.731 333.18 137.899C332.607 149.232 332.17 160.692 331.87 172.279C331.79 175.449 331.73 181.219 336.86 180.079C337.082 180.031 337.281 179.91 337.425 179.736C337.568 179.561 337.648 179.344 337.65 179.119C337.777 170.392 337.89 161.679 337.99 152.979C338.02 151.129 336.91 146.089 339.85 147.129Z" stroke="#808080" stroke-width="2"/>
<path d="M394.36 139.699C389.707 152.479 385.523 165.402 381.81 178.469C381.741 178.708 381.765 178.964 381.876 179.186C381.987 179.408 382.178 179.581 382.41 179.669C384.323 180.409 386.15 180.262 387.89 179.229C388.004 179.163 388.103 179.074 388.182 178.97C388.261 178.865 388.318 178.746 388.35 178.619C390.99 168.219 393.19 166.809 403.92 168.349C412.52 169.579 407.4 184.569 416.84 179.329C417.041 179.22 417.197 179.043 417.283 178.83C417.369 178.617 417.378 178.38 417.31 178.159L404.6 138.109C404.553 137.962 404.48 137.836 404.38 137.729C401.96 135.149 399.513 134.576 397.04 136.009C395.907 136.669 395.013 137.899 394.36 139.699Z" stroke="#808080" stroke-width="2"/>
<path d="M559.53 142.369C558.65 144.329 557.533 146.362 556.18 148.469C551.367 155.956 545.833 164.896 539.58 175.289C538.63 176.869 538.8 178.439 539.91 179.779C539.998 179.883 540.106 179.969 540.226 180.031C540.346 180.092 540.477 180.129 540.61 180.139C547.717 180.632 554.817 180.689 561.91 180.309C567.91 179.989 567.8 175.439 561.85 175.149C557.263 174.929 552.673 174.939 548.08 175.179C546.8 175.246 546.497 174.739 547.17 173.659C553.297 163.826 559.467 153.939 565.68 143.999C567.85 140.529 570.29 135.879 563.24 135.819C557.24 135.766 551.24 135.759 545.24 135.799C543.513 135.812 542.237 136.276 541.41 137.189C540.637 138.042 540.64 139.039 541.42 140.179C541.502 140.295 541.607 140.393 541.73 140.466C541.852 140.538 541.989 140.583 542.13 140.599C547.597 141.252 553.07 141.372 558.55 140.959C558.723 140.947 558.895 140.98 559.051 141.055C559.207 141.13 559.341 141.244 559.44 141.386C559.539 141.528 559.599 141.693 559.615 141.866C559.631 142.038 559.601 142.211 559.53 142.369Z" stroke="#808080" stroke-width="2"/>
<path d="M512.04 140.029C507.693 152.389 503.57 165.169 499.67 178.369C499.606 178.578 499.614 178.804 499.694 179.01C499.774 179.216 499.92 179.392 500.11 179.509C506.32 183.319 507.31 175.059 508.4 171.439C508.88 169.839 509.943 168.912 511.59 168.659C514.663 168.179 517.967 168.002 521.5 168.129C529.36 168.409 525.76 185.089 534.77 179.259C534.954 179.137 535.094 178.96 535.169 178.754C535.243 178.548 535.247 178.325 535.18 178.119C531.153 165.292 527.027 152.492 522.8 139.719C521.05 134.419 513.96 134.559 512.04 140.029Z" stroke="#808080" stroke-width="2"/>
<path d="M276.85 136.729C274.25 139.549 274.54 140.639 274.41 144.899C274.143 153.379 274.087 161.862 274.24 170.349C274.307 173.949 274.537 176.126 274.93 176.879C278.16 183.049 280.34 177.109 280.66 174.349C281.167 170.082 281.217 165.842 280.81 161.629C280.797 161.489 280.814 161.348 280.859 161.215C280.903 161.081 280.975 160.959 281.069 160.855C281.163 160.752 281.278 160.669 281.405 160.613C281.533 160.557 281.671 160.528 281.81 160.529H299.46C299.723 160.529 299.976 160.633 300.164 160.818C300.351 161.004 300.457 161.255 300.46 161.519L300.58 177.809C300.58 177.98 300.624 178.148 300.708 178.297C300.792 178.446 300.913 178.571 301.06 178.659C305.5 181.349 306.67 178.329 306.7 174.949C306.787 163.449 306.76 151.959 306.62 140.479C306.593 138.132 305.56 136.726 303.52 136.259C303.37 136.225 303.215 136.225 303.066 136.26C302.917 136.294 302.778 136.362 302.66 136.459C299.24 139.259 300.63 147.659 299.99 152.029C299.73 153.776 298.717 154.672 296.95 154.719C293.123 154.806 289.303 154.819 285.49 154.759C277.99 154.649 282.48 143.799 280.35 139.469C279.777 138.289 279.07 137.346 278.23 136.639C278.035 136.472 277.782 136.388 277.525 136.405C277.267 136.422 277.025 136.538 276.85 136.729Z" stroke="#808080" stroke-width="2"/>
<path d="M582.368 139.594C582.367 139.197 582.288 138.805 582.136 138.438C581.983 138.072 581.76 137.74 581.48 137.46C581.199 137.18 580.865 136.958 580.499 136.807C580.132 136.656 579.739 136.578 579.343 136.579L579.223 136.579C578.826 136.58 578.433 136.659 578.067 136.811C577.701 136.963 577.369 137.186 577.089 137.467C576.809 137.748 576.587 138.082 576.436 138.448C576.284 138.815 576.207 139.208 576.208 139.604L576.272 176.584C576.273 176.981 576.352 177.373 576.504 177.74C576.657 178.106 576.88 178.438 577.161 178.718C577.442 178.998 577.775 179.22 578.141 179.371C578.508 179.522 578.901 179.6 579.298 179.599L579.418 179.599C579.814 179.598 580.207 179.519 580.573 179.367C580.939 179.215 581.272 178.992 581.552 178.711C581.831 178.43 582.053 178.096 582.204 177.73C582.356 177.363 582.433 176.97 582.432 176.574L582.368 139.594Z" stroke="#808080" stroke-width="2"/>
<path d="M224.94 150.089C224.94 147.609 223.955 145.231 222.201 143.477C220.448 141.724 218.07 140.739 215.59 140.739H213.97C211.49 140.739 209.112 141.724 207.359 143.477C205.605 145.231 204.62 147.609 204.62 150.089V166.289C204.62 168.769 205.605 171.147 207.359 172.9C209.112 174.654 211.49 175.639 213.97 175.639H215.59C218.07 175.639 220.448 174.654 222.201 172.9C223.955 171.147 224.94 168.769 224.94 166.289V150.089Z" stroke="#808080" stroke-width="2"/>
<path d="M430.35 142.999C430.017 145.306 429.837 147.746 429.81 150.319C429.78 153.489 429.24 155.509 432.63 156.309C440.35 158.136 444.497 155.312 445.07 147.839C445.59 141.039 437.85 140.259 432.99 140.569C431.45 140.662 430.57 141.472 430.35 142.999Z" stroke="#808080" stroke-width="2"/>
<path d="M393.47 161.009C393.431 161.133 393.421 161.265 393.442 161.393C393.463 161.522 393.515 161.644 393.591 161.749C393.668 161.854 393.769 161.94 393.885 161.999C394.001 162.058 394.13 162.089 394.26 162.089L404.82 162.069C404.95 162.069 405.079 162.038 405.195 161.979C405.311 161.92 405.411 161.834 405.488 161.729C405.565 161.624 405.616 161.502 405.638 161.373C405.659 161.245 405.649 161.113 405.61 160.989L400.3 144.019C400.246 143.852 400.141 143.706 399.999 143.603C399.857 143.499 399.686 143.444 399.51 143.444C399.334 143.444 399.163 143.499 399.021 143.603C398.879 143.706 398.774 143.852 398.72 144.019L393.47 161.009Z" stroke="#808080" stroke-width="2"/>
<path d="M511.16 161.899C511.146 161.948 511.144 162 511.153 162.05C511.163 162.101 511.184 162.148 511.215 162.189C511.246 162.23 511.286 162.263 511.332 162.285C511.378 162.308 511.429 162.319 511.48 162.319L523.48 162.239C523.531 162.238 523.582 162.225 523.628 162.202C523.674 162.178 523.713 162.144 523.743 162.102C523.773 162.06 523.793 162.012 523.801 161.961C523.81 161.91 523.806 161.858 523.79 161.809L517.65 141.939C517.629 141.872 517.587 141.813 517.531 141.771C517.474 141.73 517.405 141.707 517.335 141.707C517.265 141.707 517.196 141.73 517.139 141.771C517.083 141.813 517.041 141.872 517.02 141.939L511.16 161.899Z" stroke="#808080" stroke-width="2"/>
<path d="M365 352.709C365.54 362.329 370.7 371.209 381 372.289C394.11 373.669 408.69 373.319 422.99 373.119C439.84 372.889 448.97 369.329 449.96 350.779C450.653 337.612 450.653 324.746 449.96 312.179C449.62 306.139 448.763 301.829 447.39 299.249C443.8 292.539 436.4 289.669 428.74 289.589C415.407 289.456 402.073 289.362 388.74 289.309C374.04 289.259 365.7 296.049 364.92 310.859C364.193 324.812 364.22 338.762 365 352.709Z" stroke="#808080" stroke-width="2"/>
<path d="M544.51 370.559C547.357 371.879 550.52 372.619 554 372.779C570.14 373.492 585.03 373.432 598.67 372.599C611.223 371.826 617.873 365.162 618.62 352.609C619.38 339.782 619.413 326.959 618.72 314.139C618.07 302.099 616.06 292.779 603.49 290.299C595.04 288.629 582.57 289.479 576.36 289.389C559.45 289.139 534.65 285.399 533.32 310.039C532.633 322.852 532.563 335.056 533.11 346.649C533.59 356.849 533.88 365.609 544.51 370.559Z" stroke="#808080" stroke-width="2"/>
<path d="M332.07 319.929C333.11 333.609 333.49 347.729 333.21 362.289C333.05 371.009 334.25 373.469 343.27 372.729C348.41 372.299 352.48 372.109 352.48 365.659C352.507 341.552 352.493 317.446 352.44 293.339C352.44 290.852 351.293 289.652 349 289.739C342.453 289.986 336.743 289.972 331.87 289.699C325.53 289.339 321.38 291.229 319.08 297.179C313.48 311.632 307.62 325.922 301.5 340.049C300.88 341.476 300.267 341.472 299.66 340.039C293.373 325.186 287.143 310.316 280.97 295.429C279.31 291.419 279.31 289.769 274.15 289.769C266.797 289.769 259.53 289.782 252.35 289.809C250.25 289.822 249.02 290.862 248.66 292.929C247.99 296.769 248.5 301.139 248.5 304.049C248.48 325.609 248.487 347.999 248.52 371.219C248.52 371.479 248.621 371.729 248.802 371.916C248.983 372.102 249.23 372.211 249.49 372.219C253.623 372.312 258.223 372.326 263.29 372.259C266.19 372.219 267.93 371.369 267.94 368.279C267.987 352.012 268 335.746 267.98 319.479C267.981 319.246 268.063 319.02 268.213 318.841C268.363 318.662 268.57 318.541 268.8 318.499L269.07 318.439C269.291 318.396 269.52 318.429 269.72 318.535C269.92 318.64 270.079 318.811 270.17 319.019C277.69 336.146 284.7 352.369 291.2 367.689C293.34 372.749 296.5 372.469 301.18 372.319C308.75 372.089 309.21 369.419 311.8 363.299C317.953 348.726 324.2 334.182 330.54 319.669C331.393 317.702 331.903 317.789 332.07 319.929Z" stroke="#808080" stroke-width="2"/>
<path d="M110.08 331.439C109.607 329.826 109.92 328.386 111.02 327.119C119.373 317.499 127.503 307.942 135.41 298.449C137.643 295.776 139.437 293.422 140.79 291.389C141.463 290.376 141.193 289.859 139.98 289.839C133.587 289.719 127.193 289.709 120.8 289.809C117.987 289.856 115.707 290.836 113.96 292.749C107.86 299.436 101.62 307.026 95.24 315.519C92.0733 319.726 88.1267 320.972 83.4 319.259C83.2067 319.189 83.0397 319.061 82.9216 318.893C82.8035 318.725 82.7401 318.524 82.74 318.319V290.809C82.7401 290.547 82.6375 290.296 82.4542 290.109C82.271 289.922 82.0218 289.814 81.76 289.809C77.58 289.749 73.4133 289.742 69.26 289.789C64.19 289.849 63.05 292.789 63 297.439C62.78 319.999 62.8033 342.559 63.07 365.119C63.12 369.189 63.6 372.119 68.25 372.209C72.7233 372.302 77.2267 372.312 81.76 372.239C82.0209 372.236 82.2701 372.13 82.4536 371.943C82.6371 371.755 82.7401 371.502 82.74 371.239V342.509C82.74 342.299 82.8059 342.096 82.9281 341.927C83.0503 341.758 83.2225 341.633 83.42 341.569C89.35 339.589 92.3 342.199 96.25 346.819C103.23 354.999 110.7 363.319 118.66 371.779C118.752 371.877 118.863 371.955 118.987 372.008C119.111 372.062 119.245 372.089 119.38 372.089L144.4 372.329C145.907 372.342 146.16 371.789 145.16 370.669C134.14 358.262 122.997 345.969 111.73 333.789C110.79 332.769 110.24 331.986 110.08 331.439Z" stroke="#808080" stroke-width="2"/>
<path d="M192.18 357.759C195.853 357.926 200.79 357.836 206.99 357.489C219.6 356.789 214.85 371.439 226.13 372.249C231.29 372.622 236.093 372.599 240.54 372.179C240.696 372.164 240.846 372.113 240.979 372.03C241.112 371.946 241.223 371.833 241.304 371.699C241.384 371.564 241.433 371.413 241.444 371.257C241.456 371.1 241.43 370.944 241.37 370.799C231.743 347.646 221.953 324.626 212 301.739C208.82 294.419 206.34 290.369 197.8 289.939C191.14 289.609 182.42 287.639 179.3 295.349C173.787 308.942 163.87 332.796 149.55 366.909C149.003 368.222 148.527 369.572 148.12 370.959C148.076 371.108 148.068 371.265 148.096 371.418C148.124 371.571 148.187 371.715 148.28 371.839C148.373 371.963 148.494 372.064 148.633 372.133C148.772 372.203 148.925 372.239 149.08 372.239C152.487 372.239 155.893 372.352 159.3 372.579C167.09 373.099 172.54 369.719 173.78 361.499C173.813 361.297 173.903 361.109 174.04 360.959C177.99 356.729 186.86 357.529 192.18 357.759Z" stroke="#808080" stroke-width="2"/>
<path d="M482.26 349.769L481.93 291.289C481.93 291.048 481.841 290.815 481.681 290.633C481.522 290.451 481.301 290.333 481.06 290.299C477.047 289.772 472.787 289.596 468.28 289.769C464.88 289.899 462.52 290.769 462.51 294.529C462.47 305.536 462.523 329.866 462.67 367.519C462.677 370.652 464.113 372.236 466.98 372.269C474.46 372.362 491.65 372.396 518.55 372.369C522.763 372.369 525.063 370.372 525.45 366.379C525.97 360.899 528.35 350.189 519.23 350.589C507.237 351.116 495.237 351.172 483.23 350.759C482.972 350.751 482.726 350.644 482.546 350.459C482.365 350.275 482.262 350.027 482.26 349.769Z" stroke="#808080" stroke-width="2"/>
<path d="M650.99 318.859C650.99 316.712 651.597 316.522 652.81 318.289C662.683 332.662 672.047 347.349 680.9 362.349C684.17 367.889 687.45 371.439 694.1 371.899C700.993 372.372 707.673 372.472 714.14 372.199C716.38 372.106 717.497 370.942 717.49 368.709L717.46 291.539C717.46 291.274 717.356 291.019 717.17 290.832C716.984 290.644 716.733 290.539 716.47 290.539L698.66 290.529C698.528 290.529 698.397 290.555 698.275 290.605C698.153 290.656 698.042 290.729 697.949 290.822C697.856 290.915 697.783 291.026 697.733 291.147C697.684 291.268 697.659 291.398 697.66 291.529C697.773 309.542 697.79 327.559 697.71 345.579C697.7 346.959 696.56 347.579 695.75 346.249C685.09 328.622 674.37 311.036 663.59 293.489C662.277 291.356 660.563 290.239 658.45 290.139C649.91 289.746 641.163 289.702 632.21 290.009C631.949 290.019 631.703 290.129 631.522 290.316C631.341 290.502 631.24 290.751 631.24 291.009C631.24 316.376 631.247 341.799 631.26 367.279C631.26 370.406 632.78 372.046 635.82 372.199C638.72 372.352 643.45 372.366 650.01 372.239C650.272 372.234 650.521 372.126 650.704 371.939C650.887 371.752 650.99 371.501 650.99 371.239V318.859Z" stroke="#808080" stroke-width="2"/>
<path d="M430.56 319.889C430.558 318.666 430.315 317.456 429.845 316.327C429.376 315.199 428.688 314.173 427.822 313.31C426.956 312.447 425.928 311.764 424.798 311.298C423.668 310.832 422.457 310.593 421.234 310.595L393.874 310.643C392.652 310.645 391.441 310.888 390.313 311.358C389.184 311.828 388.159 312.515 387.296 313.381C386.433 314.247 385.749 315.275 385.283 316.405C384.817 317.535 384.578 318.746 384.58 319.969L384.62 342.529C384.622 343.752 384.865 344.962 385.335 346.091C385.804 347.219 386.492 348.244 387.358 349.107C388.224 349.97 389.252 350.654 390.382 351.12C391.512 351.586 392.723 351.825 393.946 351.823L421.306 351.775C422.529 351.773 423.739 351.53 424.867 351.06C425.996 350.59 427.021 349.903 427.884 349.037C428.747 348.171 429.431 347.143 429.897 346.013C430.363 344.883 430.602 343.671 430.6 342.449L430.56 319.889Z" stroke="#808080" stroke-width="2"/>
<path d="M598.91 320.009C598.914 317.527 597.932 315.144 596.18 313.386C594.427 311.627 592.048 310.637 589.566 310.633L562.486 310.585C560.004 310.581 557.621 311.563 555.863 313.315C554.104 315.068 553.114 317.447 553.11 319.929L553.07 342.429C553.066 344.911 554.048 347.294 555.8 349.052C557.553 350.811 559.932 351.801 562.414 351.805L589.494 351.853C591.976 351.857 594.359 350.875 596.117 349.123C597.876 347.37 598.866 344.991 598.87 342.509L598.91 320.009Z" stroke="#808080" stroke-width="2"/>
<path d="M182.8 338.909C182.781 338.958 182.774 339.012 182.779 339.065C182.785 339.117 182.803 339.168 182.833 339.212C182.862 339.256 182.902 339.293 182.948 339.318C182.995 339.344 183.047 339.358 183.1 339.359L205.96 339.239C206.013 339.238 206.065 339.224 206.112 339.198C206.158 339.173 206.198 339.136 206.227 339.092C206.257 339.048 206.275 338.997 206.281 338.945C206.286 338.892 206.279 338.838 206.26 338.789L194.69 310.159C194.667 310.095 194.625 310.041 194.569 310.002C194.514 309.963 194.448 309.942 194.38 309.942C194.312 309.942 194.246 309.963 194.191 310.002C194.135 310.041 194.093 310.095 194.07 310.159L182.8 338.909Z" stroke="#808080" stroke-width="2"/>
<path d="M147.09 523.799C204.26 594.039 287.44 637.679 378.23 640.749C487.94 644.469 589.41 591.819 650.1 500.669C662.373 482.229 672.287 462.376 679.84 441.109C679.895 440.96 679.912 440.799 679.891 440.642C679.869 440.484 679.81 440.334 679.718 440.203C679.626 440.073 679.503 439.966 679.361 439.892C679.219 439.818 679.06 439.78 678.9 439.779H101.4C101.238 439.78 101.079 439.819 100.935 439.893C100.792 439.967 100.668 440.075 100.575 440.206C100.482 440.337 100.422 440.489 100.4 440.648C100.379 440.807 100.396 440.968 100.45 441.119C111.337 471.412 126.883 498.972 147.09 523.799Z" stroke="#808080" stroke-width="2"/>
<path d="M211.38 466.229C211.84 466.289 212.297 466.332 212.75 466.359C227.57 467.199 242.4 467.806 257.24 468.179C350.973 470.572 444.703 470.482 538.43 467.909C550.063 467.589 561.673 466.932 573.26 465.939C573.39 465.929 574.22 465.519 573.76 465.249C572.94 464.776 571.683 464.502 569.99 464.429C527.783 462.576 485.553 461.536 443.3 461.309C368.1 460.899 292.71 460.929 217.56 464.249C215.427 464.342 213.377 464.472 211.41 464.639C206.41 465.072 206.4 465.602 211.38 466.229Z" stroke="#808080" stroke-width="2"/>
<path d="M297.43 494.339C298.823 495.666 300.983 496.916 303.91 498.089C304.038 498.14 304.175 498.165 304.312 498.161C304.45 498.158 304.585 498.127 304.71 498.07C304.834 498.013 304.946 497.931 305.037 497.829C305.128 497.728 305.197 497.608 305.24 497.479C305.627 496.319 305.83 495.129 305.85 493.909C305.91 490.569 302.33 488.119 299.79 486.579C299.673 486.51 299.544 486.465 299.41 486.448C299.275 486.43 299.139 486.441 299.01 486.479C293.89 487.879 293.363 490.499 297.43 494.339Z" stroke="#808080" stroke-width="2"/>
<path d="M334.54 496.799C339 505.012 343.547 513.176 348.18 521.289C349.673 523.889 351.903 524.712 354.87 523.759C355.118 523.677 355.325 523.505 355.449 523.277C355.572 523.05 355.601 522.785 355.53 522.539L354.45 518.629C354.183 517.669 354.523 517.346 355.47 517.659L355.71 517.739C355.86 517.788 356.019 517.801 356.175 517.776C356.331 517.752 356.479 517.69 356.607 517.598C356.735 517.505 356.839 517.384 356.911 517.243C356.982 517.102 357.02 516.947 357.02 516.789L357.03 487.739C357.029 487.568 356.983 487.4 356.899 487.252C356.814 487.103 356.693 486.979 356.546 486.89C356.4 486.802 356.233 486.753 356.062 486.747C355.891 486.742 355.722 486.78 355.57 486.859L351.9 488.789C351.755 488.867 351.63 488.977 351.538 489.111C351.446 489.246 351.388 489.399 351.37 489.559C350.35 498.809 349.99 506.499 353.22 514.319C353.267 514.439 353.29 514.546 353.29 514.639C353.27 515.132 353.11 515.179 352.81 514.779C348.01 508.369 344.85 501.979 341.25 494.869C339.383 491.182 336.58 488.542 332.84 486.949C332.681 486.881 332.507 486.855 332.334 486.874C332.162 486.894 331.998 486.957 331.858 487.059C331.718 487.161 331.607 487.297 331.535 487.455C331.463 487.613 331.434 487.787 331.45 487.959L331.83 491.809C331.843 491.947 331.826 492.087 331.781 492.22C331.737 492.352 331.665 492.475 331.57 492.579C330.203 494.092 329.517 495.492 329.51 496.779C329.48 500.829 328.52 520.039 331.05 522.279C333.303 524.279 334.753 523.746 335.4 520.679C336.873 513.686 336.39 505.972 333.95 497.539C333.823 497.106 333.863 496.822 334.07 496.689C334.108 496.663 334.152 496.646 334.197 496.637C334.242 496.629 334.288 496.63 334.333 496.64C334.377 496.651 334.418 496.67 334.454 496.697C334.49 496.725 334.519 496.759 334.54 496.799Z" stroke="#808080" stroke-width="2"/>
<path d="M475.29 513.969C477.623 514.942 479.89 516.046 482.09 517.279C486.13 519.539 486.3 526.529 492.82 523.289C493.034 523.183 493.202 523.004 493.296 522.786C493.389 522.568 493.402 522.324 493.33 522.099C490.277 512.286 487.16 502.622 483.98 493.109C483.04 490.319 482.71 488.699 480.07 487.889C479.09 487.589 478.267 487.312 477.6 487.059C476.373 486.586 475.933 486.982 476.28 488.249L481.06 505.799C481.109 505.971 481.109 506.152 481.062 506.325C481.014 506.498 480.92 506.655 480.79 506.779L474.99 512.319C474.869 512.433 474.778 512.576 474.726 512.734C474.674 512.893 474.662 513.061 474.692 513.225C474.722 513.389 474.792 513.543 474.897 513.673C475.001 513.803 475.136 513.905 475.29 513.969Z" stroke="#808080" stroke-width="2"/>
<path d="M501.93 506.339C504.39 508.349 509.14 507.999 512.55 510.019C513.75 510.732 514.817 511.502 515.75 512.329C515.928 512.49 516.043 512.709 516.075 512.948C516.106 513.186 516.051 513.427 515.92 513.629C513.54 517.229 511.45 518.809 512.56 523.649C512.59 523.783 512.649 523.909 512.731 524.019C512.813 524.13 512.918 524.222 513.039 524.289C513.159 524.357 513.292 524.399 513.43 524.413C513.568 524.427 513.708 524.412 513.84 524.369C520.78 522.149 524.063 518.092 523.69 512.199C523.08 502.619 513.09 503.449 506.56 500.219C505.04 499.466 504.78 498.402 505.78 497.029C507.38 494.859 512.61 485.699 504.76 487.119C494.86 488.899 495.68 501.249 501.93 506.339Z" stroke="#808080" stroke-width="2"/>
<path d="M213.31 522.319C215.7 525.509 220.83 524.239 223.03 521.729C225.93 518.409 224.8 501.159 224.62 496.339C224.5 493.206 223.95 490.979 222.97 489.659C220.4 486.199 210.15 486.159 213.42 492.369C215.56 496.409 217.68 498.699 217.71 503.779C217.75 508.726 217.64 512.666 217.38 515.599C217.367 515.743 217.323 515.883 217.251 516.009C217.178 516.135 217.079 516.244 216.96 516.329C215.07 517.669 211.18 519.479 213.31 522.319Z" stroke="#808080" stroke-width="2"/>
<path d="M376.33 515.619C383.14 516.739 384.1 514.559 387.01 522.069C387.063 522.207 387.145 522.331 387.251 522.433C387.356 522.535 387.482 522.612 387.62 522.659L393.17 524.489C394.417 524.902 394.84 524.486 394.44 523.239C391.187 513.172 387.953 503.116 384.74 493.069C383.833 490.236 381.72 488.296 378.4 487.249C377.247 486.882 376.823 487.282 377.13 488.449L382.13 507.609C382.169 507.759 382.172 507.917 382.14 508.069C382.107 508.221 382.04 508.363 381.943 508.484C381.846 508.605 381.722 508.703 381.581 508.768C381.439 508.833 381.285 508.864 381.13 508.859C376.81 508.739 374.933 510.709 375.5 514.769C375.529 514.981 375.626 515.178 375.775 515.331C375.924 515.484 376.119 515.585 376.33 515.619Z" stroke="#808080" stroke-width="2"/>
<path d="M437.5 491.919C439.82 494.049 441.28 493.969 444.12 493.979C448.653 494.006 453.19 493.976 457.73 493.889C464.15 493.759 463.45 487.959 457.45 487.499C450.37 486.949 439.74 485.869 437.29 490.729C437.19 490.924 437.156 491.146 437.194 491.361C437.232 491.577 437.339 491.772 437.5 491.919Z" stroke="#808080" stroke-width="2"/>
<path d="M529.64 492.869C530.813 493.762 532.137 494.176 533.61 494.109C538.537 493.869 543.163 493.796 547.49 493.889C550.117 493.942 552.093 492.882 553.42 490.709C554.713 488.576 554.117 487.466 551.63 487.379C545.27 487.152 538.95 487.182 532.67 487.469C529.9 487.599 525.99 490.099 529.64 492.869Z" stroke="#808080" stroke-width="2"/>
<path d="M198.39 516.549C198.69 526.869 212.58 526.009 209.89 518.979C209.812 518.778 209.668 518.606 209.48 518.489L205.96 516.339C205.824 516.255 205.711 516.14 205.629 516.002C205.547 515.865 205.499 515.709 205.49 515.549C205.17 510.509 205.14 505.466 205.4 500.419C205.61 496.289 207.51 493.359 210.22 490.539C210.314 490.441 210.387 490.325 210.435 490.197C210.482 490.07 210.503 489.935 210.497 489.799C210.49 489.663 210.456 489.53 210.396 489.408C210.337 489.286 210.253 489.178 210.15 489.089C206.02 485.549 201.65 489.209 199.52 492.769C196.89 497.199 198.24 511.099 198.39 516.549Z" stroke="#808080" stroke-width="2"/>
<path d="M242.32 491.259L250.59 497.679C250.727 497.788 250.833 497.932 250.898 498.095C250.963 498.258 250.984 498.435 250.96 498.609C250.613 501.056 249.497 502.709 247.61 503.569C245.06 504.729 238.66 502.189 241.91 508.719C241.995 508.889 242.127 509.031 242.29 509.129C247.66 512.379 247.89 516.179 250.24 520.949C251.42 523.349 253.39 524.569 255.97 524.079C258.063 523.679 258.623 522.529 257.65 520.629C256.25 517.909 255.383 515.129 255.05 512.289C254.71 509.449 256.32 507.249 257.44 504.749C259.94 499.199 259.93 492.799 254.18 489.339C250.36 487.039 245.01 486.369 242.16 489.839C242.075 489.942 242.011 490.06 241.973 490.188C241.934 490.316 241.922 490.45 241.937 490.583C241.952 490.716 241.994 490.844 242.06 490.96C242.125 491.076 242.214 491.178 242.32 491.259Z" stroke="#808080" stroke-width="2"/>
<path d="M272.72 490.739C272.72 489.845 272.365 488.988 271.733 488.356C271.101 487.724 270.244 487.369 269.35 487.369H269.17C268.276 487.369 267.419 487.724 266.787 488.356C266.155 488.988 265.8 489.845 265.8 490.739V519.879C265.8 520.773 266.155 521.63 266.787 522.262C267.419 522.894 268.276 523.249 269.17 523.249H269.35C270.244 523.249 271.101 522.894 271.733 522.262C272.365 521.63 272.72 520.773 272.72 519.879V490.739Z" stroke="#808080" stroke-width="2"/>
<path d="M280.03 502.129C280.31 508.009 277.2 527.349 289.63 523.859C292.023 523.192 292.623 521.766 291.43 519.579C287.45 512.329 286.48 508.339 287.51 499.999C287.96 496.329 290.21 493.139 291.58 489.579C291.664 489.362 291.671 489.123 291.598 488.902C291.525 488.681 291.377 488.493 291.18 488.369C286.58 485.479 281.95 490.789 280.59 494.619C280.05 496.132 279.863 498.636 280.03 502.129Z" stroke="#808080" stroke-width="2"/>
<path d="M317.63 523.419C319.79 522.519 320.903 520.969 320.97 518.769C321.057 515.929 321.05 507.119 320.95 492.339C320.937 490.346 319.817 488.839 317.59 487.819C317.423 487.743 317.24 487.713 317.058 487.733C316.877 487.752 316.705 487.82 316.56 487.929C314.927 489.182 314.09 490.819 314.05 492.839C313.917 499.099 313.92 507.722 314.06 518.709C314.08 520.802 314.973 522.352 316.74 523.359C316.874 523.436 317.024 523.482 317.178 523.493C317.332 523.503 317.487 523.478 317.63 523.419Z" stroke="#808080" stroke-width="2"/>
<path d="M406.95 489.409C406.95 488.918 406.755 488.448 406.408 488.101C406.061 487.754 405.591 487.559 405.1 487.559H402.08C401.589 487.559 401.119 487.754 400.772 488.101C400.425 488.448 400.23 488.918 400.23 489.409V521.909C400.23 522.4 400.425 522.87 400.772 523.217C401.119 523.564 401.589 523.759 402.08 523.759H405.1C405.591 523.759 406.061 523.564 406.408 523.217C406.755 522.87 406.95 522.4 406.95 521.909V489.409Z" stroke="#808080" stroke-width="2"/>
<path d="M562.5 523.359C562.681 523.52 562.913 523.611 563.154 523.615C563.395 523.619 563.628 523.535 563.81 523.379C567.41 520.329 566.57 510.369 566.44 506.109C566.29 501.219 566.95 494.479 565.84 488.589C565.804 488.406 565.718 488.236 565.591 488.098C565.464 487.961 565.301 487.861 565.12 487.809C563.447 487.356 561.78 487.399 560.12 487.939C559.926 488.001 559.756 488.121 559.633 488.284C559.509 488.446 559.438 488.644 559.43 488.849C559.063 498.709 559.11 508.546 559.57 518.359C559.68 520.629 560.91 521.959 562.5 523.359Z" stroke="#808080" stroke-width="2"/>
<path d="M235.94 523.669C236.14 523.761 236.364 523.786 236.579 523.739C236.793 523.692 236.987 523.576 237.13 523.409C240.86 519.029 239.24 500.639 239.21 494.509C239.2 491.809 238.51 489.519 236.47 487.919C236.281 487.77 236.044 487.693 235.804 487.704C235.563 487.715 235.334 487.813 235.16 487.979C233.43 489.629 232.53 490.949 232.42 493.449C232.073 501.956 232.143 510.459 232.63 518.959C232.75 521.112 233.853 522.682 235.94 523.669Z" stroke="#808080" stroke-width="2"/>
<path d="M514.93 495.589C516.99 497.196 519.033 498.012 521.06 498.039C521.296 498.045 521.526 497.965 521.71 497.815C521.893 497.665 522.017 497.453 522.06 497.219C523.333 490.119 520.363 486.996 513.15 487.849C512.91 487.88 512.69 487.996 512.528 488.176C512.367 488.356 512.275 488.587 512.27 488.829C512.197 491.902 513.083 494.156 514.93 495.589Z" stroke="#808080" stroke-width="2"/>
<path d="M569 488.989C567.39 494.299 573.69 494.819 577.18 494.219C580.71 493.609 583.77 493.659 582.2 488.959C582.137 488.761 582.011 488.589 581.842 488.467C581.674 488.345 581.47 488.279 581.26 488.279H569.95C569.736 488.279 569.528 488.348 569.357 488.476C569.186 488.604 569.061 488.784 569 488.989Z" stroke="#808080" stroke-width="2"/>
<path d="M363.95 523.599C371.38 526.249 371.89 517.499 373.13 512.929C374.7 507.139 378.14 501.019 376.52 494.649C376.187 493.362 375.75 492.149 375.21 491.009C374.483 489.489 373.863 489.529 373.35 491.129L363.34 522.349C363.26 522.596 363.278 522.864 363.392 523.097C363.506 523.331 363.706 523.511 363.95 523.599Z" stroke="#808080" stroke-width="2"/>
<path d="M463.2 523.369C466.51 524.989 469.51 523.969 470.6 520.279C472.04 515.446 473.447 510.599 474.82 505.739C476.21 500.819 475.71 495.899 475.74 490.839C475.739 490.589 475.646 490.349 475.48 490.164C475.314 489.98 475.086 489.864 474.84 489.839C473.72 489.726 472.94 490.372 472.5 491.779C469.353 501.946 466.083 512.069 462.69 522.149C462.612 522.378 462.621 522.628 462.715 522.852C462.809 523.077 462.981 523.26 463.2 523.369Z" stroke="#808080" stroke-width="2"/>
<path d="M537.38 520.669C538.36 524.979 543.89 524.719 543.95 519.189C544.023 511.722 544.023 504.202 543.95 496.629C543.949 496.494 543.92 496.361 543.866 496.237C543.812 496.114 543.734 496.003 543.636 495.91C543.538 495.818 543.422 495.746 543.296 495.699C543.169 495.653 543.035 495.632 542.9 495.639C537.12 495.909 537.28 500.179 537.08 505.079C536.91 509.539 536.41 516.409 537.38 520.669Z" stroke="#808080" stroke-width="2"/>
<path d="M453.413 499.627C453.41 498.77 453.067 497.95 452.459 497.346C451.851 496.742 451.028 496.405 450.172 496.408L449.512 496.41C449.088 496.412 448.668 496.497 448.276 496.66C447.885 496.824 447.53 497.063 447.231 497.364C446.932 497.665 446.695 498.022 446.535 498.415C446.374 498.807 446.292 499.227 446.293 499.651L446.367 520.831C446.37 521.688 446.713 522.508 447.321 523.112C447.929 523.716 448.751 524.053 449.608 524.05L450.268 524.048C450.692 524.046 451.112 523.961 451.503 523.798C451.895 523.634 452.25 523.395 452.549 523.094C452.848 522.793 453.084 522.436 453.245 522.043C453.406 521.651 453.488 521.231 453.487 520.806L453.413 499.627Z" stroke="#808080" stroke-width="2"/>
<path d="M570.9 507.219C573.6 508.032 576.363 508.689 579.19 509.189C579.359 509.219 579.532 509.205 579.694 509.148C579.856 509.092 580.001 508.995 580.114 508.866C580.228 508.738 580.306 508.582 580.342 508.414C580.378 508.247 580.371 508.073 580.32 507.909L578.86 503.139C578.794 502.928 578.659 502.744 578.476 502.618C578.293 502.491 578.073 502.428 577.85 502.439L569.94 502.829C569.777 502.838 569.619 502.886 569.479 502.97C569.34 503.054 569.223 503.17 569.14 503.309C567.83 505.439 568.74 506.569 570.9 507.219Z" stroke="#808080" stroke-width="2"/>
<path d="M299.17 512.779C299.329 512.939 299.43 513.147 299.457 513.37C299.485 513.593 299.436 513.818 299.32 514.009C297.993 516.176 296.73 518.286 295.53 520.339C294.53 522.066 295.647 523.246 298.88 523.879C299.076 523.912 299.273 523.891 299.45 523.819C308.4 520.169 306.29 512.259 306.51 504.639C306.516 504.376 306.421 504.121 306.245 503.929C306.07 503.737 305.827 503.622 305.57 503.609C302.01 503.399 295.92 502.919 293.59 505.949C293.441 506.143 293.368 506.384 293.382 506.626C293.397 506.869 293.499 507.097 293.67 507.269L299.17 512.779Z" stroke="#808080" stroke-width="2"/>
<path d="M500.73 522.509C504.76 525.469 511.93 524.029 506.82 518.389C504.92 516.289 503.057 514.426 501.23 512.799C501.126 512.706 501.003 512.635 500.87 512.592C500.737 512.548 500.597 512.533 500.458 512.548C500.32 512.562 500.186 512.605 500.066 512.674C499.946 512.743 499.841 512.837 499.76 512.949C496.953 516.782 497.277 519.969 500.73 522.509Z" stroke="#808080" stroke-width="2"/>
<path d="M409.72 521.309L414.79 525.939C414.975 526.109 415.217 526.203 415.468 526.203C415.718 526.203 415.958 526.109 416.14 525.939L421.22 521.299C421.337 521.193 421.428 521.061 421.485 520.914C421.541 520.766 421.562 520.608 421.545 520.451C421.529 520.293 421.475 520.143 421.389 520.01C421.303 519.878 421.187 519.768 421.05 519.689C419.15 518.602 417.71 517.962 416.73 517.769C413.857 517.202 411.5 517.909 409.66 519.889C409.57 519.984 409.5 520.096 409.454 520.219C409.409 520.342 409.388 520.473 409.393 520.606C409.399 520.738 409.431 520.868 409.487 520.988C409.543 521.109 409.622 521.218 409.72 521.309Z" stroke="#808080" stroke-width="2"/>
<path d="M582.218 519.424C582.206 519.002 582.028 518.602 581.721 518.313C581.415 518.023 581.006 517.867 580.584 517.879L570.448 518.162C570.239 518.167 570.034 518.214 569.843 518.3C569.653 518.385 569.481 518.507 569.337 518.659C569.194 518.81 569.082 518.989 569.007 519.184C568.933 519.379 568.897 519.587 568.903 519.795L568.982 522.614C568.994 523.036 569.173 523.435 569.479 523.725C569.785 524.015 570.194 524.171 570.616 524.159L580.752 523.876C580.961 523.87 581.166 523.824 581.357 523.738C581.547 523.653 581.719 523.531 581.863 523.379C582.006 523.228 582.118 523.049 582.193 522.854C582.267 522.659 582.303 522.451 582.297 522.242L582.218 519.424Z" stroke="#808080" stroke-width="2"/>
<path d="M210.5 542.619C221.867 543.586 234.59 544.256 248.67 544.629C342.683 547.122 435.147 547.242 526.06 544.989C541.613 544.602 557.143 543.812 572.65 542.619C573.05 542.589 575.2 541.839 572.76 541.599C565.83 540.929 557.81 540.869 551.89 540.669C458.79 537.519 365.54 536.979 272.43 539.699C242.13 540.579 221.233 541.316 209.74 541.909C209.649 541.915 209.56 541.941 209.479 541.984C209.398 542.027 209.327 542.086 209.27 542.159C208.8 542.769 210.03 542.579 210.5 542.619Z" stroke="#808080" stroke-width="2"/>
<path d="M412.59 587.699C412.59 584.751 412.009 581.831 410.881 579.108C409.753 576.384 408.099 573.909 406.014 571.824C403.93 569.74 401.455 568.086 398.731 566.958C396.007 565.83 393.088 565.249 390.14 565.249C384.186 565.249 378.476 567.614 374.265 571.824C370.055 576.035 367.69 581.745 367.69 587.699C367.69 593.653 370.055 599.363 374.265 603.573C378.476 607.784 384.186 610.149 390.14 610.149C393.088 610.149 396.007 609.568 398.731 608.44C401.455 607.312 403.93 605.658 406.014 603.573C408.099 601.489 409.753 599.014 410.881 596.29C412.009 593.566 412.59 590.647 412.59 587.699Z" stroke="#808080" stroke-width="2"/>
<path d="M361.66 587.659C361.66 583.296 359.927 579.112 356.842 576.027C353.757 572.942 349.573 571.209 345.21 571.209C343.05 571.209 340.911 571.634 338.915 572.461C336.919 573.288 335.106 574.5 333.578 576.027C332.051 577.555 330.839 579.368 330.012 581.364C329.186 583.36 328.76 585.499 328.76 587.659C328.76 589.819 329.186 591.958 330.012 593.954C330.839 595.95 332.051 597.763 333.578 599.291C335.106 600.818 336.919 602.03 338.915 602.857C340.911 603.683 343.05 604.109 345.21 604.109C349.573 604.109 353.757 602.376 356.842 599.291C359.927 596.206 361.66 592.022 361.66 587.659Z" stroke="#808080" stroke-width="2"/>
<path d="M451.53 587.669C451.53 583.309 449.798 579.127 446.715 576.044C443.632 572.961 439.45 571.229 435.09 571.229C430.73 571.229 426.548 572.961 423.465 576.044C420.382 579.127 418.65 583.309 418.65 587.669C418.65 592.029 420.382 596.211 423.465 599.294C426.548 602.377 430.73 604.109 435.09 604.109C439.45 604.109 443.632 602.377 446.715 599.294C449.798 596.211 451.53 592.029 451.53 587.669Z" stroke="#808080" stroke-width="2"/>
<path d="M759.13 237.089C513.67 237.009 268.207 236.996 22.74 237.049C20.0666 237.049 15.36 237.189 8.61997 237.469C8.50415 237.475 8.38954 237.441 8.29501 237.372C8.20049 237.303 8.13169 237.203 8.09997 237.089C7.82997 236.039 13.24 234.769 14.73 234.479C33.4833 230.752 52.22 226.932 70.94 223.019C80.9 220.939 82.3 211.549 85.69 203.479C117.94 126.609 176.67 66.809 251.77 31.099C310.09 3.36896 371.89 -4.12104 435.66 4.21896C500.98 12.759 561.1 40.179 609.76 84.6189C631.34 104.326 649.667 125.292 664.74 147.519C679.28 168.959 689.77 190.889 699.03 214.549C700.98 219.539 703.05 221.879 708.17 222.879C718.563 224.892 738.313 228.882 767.42 234.849C768.06 234.982 768.657 235.149 769.21 235.349C772.35 236.489 772.25 237.136 768.91 237.289C767.677 237.342 766.45 237.349 765.23 237.309C761.21 237.162 759.177 237.089 759.13 237.089ZM110.37 195.439C106.67 203.359 103.367 211.446 100.46 219.699C100.407 219.849 100.392 220.01 100.414 220.168C100.436 220.326 100.495 220.476 100.587 220.606C100.679 220.736 100.801 220.843 100.942 220.916C101.084 220.99 101.241 221.028 101.4 221.029H679.01C679.171 221.029 679.329 220.99 679.471 220.916C679.614 220.842 679.736 220.735 679.828 220.603C679.92 220.472 679.98 220.32 680.001 220.161C680.022 220.002 680.005 219.84 679.95 219.689C642.69 116.429 546.16 39.329 437.99 23.279C315.59 5.11896 196.99 58.079 129.34 161.369C122.2 172.269 115.877 183.626 110.37 195.439Z" fill="black"/>
<path d="M390.13 90.899C402.529 90.899 412.58 80.8478 412.58 68.449C412.58 56.0502 402.529 45.999 390.13 45.999C377.731 45.999 367.68 56.0502 367.68 68.449C367.68 80.8478 377.731 90.899 390.13 90.899Z" fill="black"/>
<path d="M345.24 84.919C354.325 84.919 361.69 77.554 361.69 68.469C361.69 59.3839 354.325 52.019 345.24 52.019C336.155 52.019 328.79 59.3839 328.79 68.469C328.79 77.554 336.155 84.919 345.24 84.919Z" fill="black"/>
<path d="M435.04 84.889C444.125 84.889 451.49 77.524 451.49 68.439C451.49 59.3539 444.125 51.989 435.04 51.989C425.955 51.989 418.59 59.3539 418.59 68.439C418.59 77.524 425.955 84.889 435.04 84.889Z" fill="black"/>
<path d="M198.06 152.549C199.1 128.869 228.72 129.199 231.1 149.729C232.027 157.689 231.843 164.956 230.55 171.529C228.71 180.809 215.34 182.319 208.13 180.119C196.13 176.459 197.64 162.309 198.06 152.549ZM224.94 150.089C224.94 147.609 223.955 145.231 222.201 143.478C220.448 141.724 218.07 140.739 215.59 140.739H213.97C211.49 140.739 209.112 141.724 207.359 143.478C205.605 145.231 204.62 147.609 204.62 150.089V166.289C204.62 168.769 205.605 171.147 207.359 172.9C209.112 174.654 211.49 175.639 213.97 175.639H215.59C218.07 175.639 220.448 174.654 222.201 172.9C223.955 171.147 224.94 168.769 224.94 166.289V150.089Z" fill="black"/>
<path d="M239.25 143.779C241.4 133.989 252.83 134.429 260.24 135.999C261.967 136.366 262.97 137.356 263.25 138.969C263.28 139.145 263.263 139.326 263.2 139.493C263.136 139.66 263.029 139.807 262.89 139.919C259.6 142.569 255.95 140.479 253.28 140.589C249.56 140.742 247.023 142.676 245.67 146.389C245.586 146.615 245.586 146.86 245.67 147.079C247.01 150.619 249.2 153.879 253.15 154.569C259.47 155.679 265.61 157.959 266.54 165.239C267.053 169.286 266.287 172.829 264.24 175.869C259.79 182.469 245.15 182.679 239.75 177.409C239.561 177.224 239.453 176.972 239.449 176.708C239.445 176.444 239.546 176.189 239.73 175.999C244.5 171.019 255.15 180.549 259.43 172.129C261.13 168.782 260.687 165.389 258.1 161.949C257.957 161.767 257.761 161.638 257.54 161.579C247.71 159.109 236.08 158.229 239.25 143.779Z" fill="black"/>
<path d="M423.65 139.739C425.54 136.869 426.77 135.419 430.37 135.279C437.06 135.019 444.95 134.349 448.94 139.979C454.38 147.659 450.91 156.129 444.48 161.619C444.301 161.771 444.181 161.981 444.14 162.211C444.1 162.442 444.143 162.678 444.26 162.879L453.26 178.379C453.327 178.493 453.37 178.62 453.387 178.752C453.404 178.883 453.395 179.017 453.36 179.146C453.324 179.274 453.264 179.394 453.181 179.5C453.099 179.605 452.997 179.693 452.88 179.759C449.31 181.749 447.12 179.559 445.39 176.439C441.66 169.749 439.17 164.179 431.67 161.219C431.523 161.162 431.365 161.14 431.209 161.156C431.052 161.172 430.902 161.224 430.769 161.309C430.637 161.394 430.526 161.508 430.446 161.644C430.367 161.779 430.32 161.932 430.31 162.089C430.043 166.102 429.9 170.152 429.88 174.239C429.85 181.569 423.52 180.819 423.51 173.659C423.49 162.379 423.483 151.256 423.49 140.289C423.49 140.093 423.546 139.902 423.65 139.739ZM430.35 142.999C430.017 145.306 429.837 147.746 429.81 150.319C429.78 153.489 429.24 155.509 432.63 156.309C440.35 158.136 444.497 155.312 445.07 147.839C445.59 141.039 437.85 140.259 432.99 140.569C431.45 140.662 430.57 141.472 430.35 142.999Z" fill="black"/>
<path d="M475.11 149.779C476.55 147.779 487.32 130.869 490.91 136.369C491.02 136.534 491.077 136.729 491.076 136.929C491.074 137.128 491.013 137.323 490.9 137.489C485.55 145.229 479.18 152.309 478.21 157.759C478.165 158.003 478.211 158.253 478.34 158.459L490.59 178.289C490.664 178.409 490.711 178.544 490.73 178.683C490.748 178.823 490.736 178.965 490.696 179.1C490.655 179.235 490.586 179.36 490.494 179.467C490.402 179.574 490.288 179.659 490.16 179.719C487.227 181.079 484.923 180.359 483.25 177.559C480.22 172.479 474.47 161.209 469.7 160.799C469.499 160.782 469.298 160.825 469.123 160.923C468.948 161.021 468.808 161.17 468.72 161.349C466.45 165.929 467.46 171.379 466.94 176.099C466.52 179.929 463.24 181.419 460.89 177.329C460.803 177.176 460.76 177.009 460.76 176.829L460.78 138.509C460.78 138.282 460.854 138.064 460.99 137.889C463.19 135.096 465.107 135.332 466.74 138.599C468 141.099 464.98 163.899 475.11 149.779Z" fill="black"/>
<path d="M339.85 147.129C336.91 146.089 338.02 151.129 337.99 152.979C337.89 161.679 337.777 170.392 337.65 179.119C337.648 179.344 337.568 179.561 337.425 179.736C337.281 179.91 337.082 180.031 336.86 180.079C331.73 181.219 331.79 175.449 331.87 172.279C332.17 160.692 332.607 149.232 333.18 137.899C333.186 137.731 333.236 137.568 333.326 137.424C333.415 137.28 333.541 137.161 333.69 137.079C340.53 133.229 342.98 137.029 345.01 143.039C347.583 150.679 350.283 158.212 353.11 165.639C353.75 167.326 354.377 167.319 354.99 165.619C357.93 157.412 360.827 149.202 363.68 140.989C365.26 136.459 369.48 132.539 373.03 138.209C375.09 141.519 374.9 144.489 375.15 148.219C375.723 156.559 376.08 164.912 376.22 173.279C376.253 175.139 375.793 177.146 374.84 179.299C374.737 179.531 374.549 179.714 374.315 179.813C374.081 179.911 373.818 179.917 373.58 179.829C371.567 179.089 370.5 177.402 370.38 174.769C369.993 166.196 369.837 157.616 369.91 149.029C369.917 148.409 369.857 147.812 369.73 147.239C369.33 145.439 368.707 145.359 367.86 146.999C367.36 147.992 366.93 149.012 366.57 150.059C364.29 156.739 361.45 167.729 356.3 172.609C355 173.842 353.627 173.929 352.18 172.869C346.41 168.649 342.85 154.699 340.46 147.749C340.41 147.608 340.329 147.479 340.224 147.372C340.119 147.265 339.991 147.182 339.85 147.129Z" fill="black"/>
<path d="M397.04 136.009C399.513 134.576 401.96 135.149 404.38 137.729C404.48 137.836 404.553 137.962 404.6 138.109L417.31 178.159C417.378 178.38 417.369 178.617 417.283 178.83C417.197 179.043 417.041 179.22 416.84 179.329C407.4 184.569 412.52 169.579 403.92 168.349C393.19 166.809 390.99 168.219 388.35 178.619C388.318 178.746 388.261 178.865 388.182 178.97C388.103 179.074 388.004 179.163 387.89 179.229C386.15 180.262 384.323 180.409 382.41 179.669C382.178 179.581 381.987 179.408 381.876 179.186C381.765 178.964 381.741 178.708 381.81 178.469C385.523 165.402 389.707 152.479 394.36 139.699C395.013 137.899 395.907 136.669 397.04 136.009ZM393.47 161.009C393.431 161.133 393.421 161.265 393.442 161.393C393.464 161.522 393.515 161.644 393.592 161.749C393.668 161.854 393.769 161.94 393.885 161.999C394.001 162.058 394.13 162.089 394.26 162.089L404.82 162.069C404.95 162.069 405.079 162.038 405.195 161.979C405.311 161.92 405.412 161.834 405.488 161.729C405.565 161.624 405.616 161.502 405.638 161.373C405.659 161.245 405.649 161.113 405.61 160.989L400.3 144.019C400.246 143.852 400.141 143.706 399.999 143.603C399.857 143.499 399.686 143.444 399.51 143.444C399.334 143.444 399.163 143.499 399.021 143.603C398.879 143.706 398.774 143.852 398.72 144.019L393.47 161.009Z" fill="black"/>
<path d="M558.55 140.959C553.07 141.372 547.597 141.252 542.13 140.599C541.989 140.583 541.852 140.538 541.73 140.466C541.607 140.393 541.502 140.295 541.42 140.179C540.64 139.039 540.637 138.042 541.41 137.189C542.237 136.276 543.513 135.812 545.24 135.799C551.24 135.759 557.24 135.766 563.24 135.819C570.29 135.879 567.85 140.529 565.68 143.999C559.467 153.939 553.297 163.826 547.17 173.659C546.497 174.739 546.8 175.246 548.08 175.179C552.673 174.939 557.263 174.929 561.85 175.149C567.8 175.439 567.91 179.989 561.91 180.309C554.817 180.689 547.717 180.632 540.61 180.139C540.477 180.129 540.346 180.092 540.226 180.031C540.106 179.969 539.998 179.883 539.91 179.779C538.8 178.439 538.63 176.869 539.58 175.289C545.833 164.896 551.367 155.956 556.18 148.469C557.533 146.362 558.65 144.329 559.53 142.369C559.601 142.211 559.631 142.038 559.615 141.866C559.599 141.693 559.539 141.528 559.44 141.386C559.341 141.244 559.207 141.13 559.051 141.055C558.895 140.98 558.723 140.947 558.55 140.959Z" fill="black"/>
<path d="M512.04 140.029C513.96 134.559 521.05 134.419 522.8 139.719C527.027 152.492 531.153 165.292 535.18 178.119C535.247 178.325 535.243 178.548 535.169 178.754C535.094 178.96 534.954 179.137 534.77 179.259C525.76 185.089 529.36 168.409 521.5 168.129C517.967 168.002 514.663 168.179 511.59 168.659C509.943 168.912 508.88 169.839 508.4 171.439C507.31 175.059 506.32 183.319 500.11 179.509C499.92 179.392 499.774 179.216 499.694 179.01C499.614 178.804 499.606 178.578 499.67 178.369C503.57 165.169 507.693 152.389 512.04 140.029ZM511.16 161.899C511.146 161.948 511.144 162 511.153 162.05C511.163 162.101 511.184 162.148 511.215 162.189C511.246 162.23 511.286 162.263 511.332 162.285C511.378 162.308 511.429 162.319 511.48 162.319L523.48 162.239C523.531 162.238 523.582 162.225 523.628 162.202C523.673 162.178 523.713 162.144 523.743 162.102C523.773 162.06 523.793 162.012 523.801 161.961C523.809 161.91 523.805 161.858 523.79 161.809L517.65 141.939C517.629 141.872 517.587 141.813 517.53 141.771C517.474 141.73 517.405 141.707 517.335 141.707C517.265 141.707 517.196 141.73 517.139 141.771C517.083 141.813 517.041 141.872 517.02 141.939L511.16 161.899Z" fill="black"/>
<path d="M276.85 136.729C277.025 136.538 277.267 136.422 277.525 136.405C277.782 136.388 278.035 136.472 278.23 136.639C279.07 137.346 279.777 138.289 280.35 139.469C282.48 143.799 277.99 154.649 285.49 154.759C289.303 154.819 293.123 154.806 296.95 154.719C298.717 154.672 299.73 153.776 299.99 152.029C300.63 147.659 299.24 139.259 302.66 136.459C302.778 136.363 302.917 136.294 303.066 136.26C303.215 136.225 303.37 136.225 303.52 136.259C305.56 136.726 306.593 138.132 306.62 140.479C306.76 151.959 306.787 163.449 306.7 174.949C306.67 178.329 305.5 181.349 301.06 178.659C300.913 178.571 300.792 178.446 300.708 178.297C300.624 178.148 300.58 177.98 300.58 177.809L300.46 161.519C300.457 161.256 300.351 161.004 300.164 160.818C299.976 160.633 299.723 160.529 299.46 160.529H281.81C281.671 160.528 281.533 160.557 281.405 160.613C281.278 160.669 281.163 160.752 281.069 160.856C280.975 160.959 280.903 161.081 280.859 161.215C280.814 161.348 280.797 161.489 280.81 161.629C281.217 165.842 281.167 170.082 280.66 174.349C280.34 177.109 278.16 183.049 274.93 176.879C274.537 176.126 274.307 173.949 274.24 170.349C274.087 161.862 274.143 153.379 274.41 144.899C274.54 140.639 274.25 139.549 276.85 136.729Z" fill="black"/>
<path d="M579.343 136.579L579.223 136.579C577.555 136.582 576.205 137.936 576.208 139.604L576.272 176.584C576.275 178.252 577.63 179.602 579.298 179.599L579.418 179.599C581.086 179.596 582.435 178.241 582.432 176.574L582.368 139.594C582.365 137.926 581.011 136.576 579.343 136.579Z" fill="black"/>
<path d="M778.24 416.339C778.24 416.397 778.229 416.454 778.206 416.507C778.184 416.561 778.152 416.609 778.111 416.65C778.07 416.691 778.022 416.723 777.968 416.745C777.915 416.768 777.858 416.779 777.8 416.779H1.43999C1.3233 416.779 1.21138 416.733 1.12887 416.65C1.04635 416.568 1 416.456 1 416.339V246.479C1 246.362 1.04635 246.25 1.12887 246.168C1.21138 246.085 1.3233 246.039 1.43999 246.039H777.8C777.858 246.039 777.915 246.05 777.968 246.072C778.022 246.095 778.07 246.127 778.111 246.168C778.152 246.209 778.184 246.257 778.206 246.311C778.229 246.364 778.24 246.421 778.24 246.479V416.339ZM365 352.709C365.54 362.329 370.7 371.209 381 372.289C394.11 373.669 408.69 373.319 422.99 373.119C439.84 372.889 448.97 369.329 449.96 350.779C450.653 337.612 450.653 324.746 449.96 312.179C449.62 306.139 448.763 301.829 447.39 299.249C443.8 292.539 436.4 289.669 428.74 289.589C415.407 289.456 402.073 289.362 388.74 289.309C374.04 289.259 365.7 296.049 364.92 310.859C364.193 324.812 364.22 338.762 365 352.709ZM544.51 370.559C547.357 371.879 550.52 372.619 554 372.779C570.14 373.492 585.03 373.432 598.67 372.599C611.223 371.826 617.873 365.162 618.62 352.609C619.38 339.782 619.413 326.959 618.72 314.139C618.07 302.099 616.06 292.779 603.49 290.299C595.04 288.629 582.57 289.479 576.36 289.389C559.45 289.139 534.65 285.399 533.32 310.039C532.633 322.852 532.563 335.056 533.11 346.649C533.59 356.849 533.88 365.609 544.51 370.559ZM332.07 319.929C333.11 333.609 333.49 347.729 333.21 362.289C333.05 371.009 334.25 373.469 343.27 372.729C348.41 372.299 352.48 372.109 352.48 365.659C352.507 341.552 352.493 317.446 352.44 293.339C352.44 290.852 351.293 289.652 349 289.739C342.453 289.986 336.743 289.972 331.87 289.699C325.53 289.339 321.38 291.229 319.08 297.179C313.48 311.632 307.62 325.922 301.5 340.049C300.88 341.476 300.267 341.472 299.66 340.039C293.373 325.186 287.143 310.316 280.97 295.429C279.31 291.419 279.31 289.769 274.15 289.769C266.797 289.769 259.53 289.782 252.35 289.809C250.25 289.822 249.02 290.862 248.66 292.929C247.99 296.769 248.5 301.139 248.5 304.049C248.48 325.609 248.487 347.999 248.52 371.219C248.52 371.479 248.621 371.729 248.802 371.916C248.983 372.102 249.23 372.211 249.49 372.219C253.623 372.312 258.223 372.326 263.29 372.259C266.19 372.219 267.93 371.369 267.94 368.279C267.987 352.012 268 335.746 267.98 319.479C267.981 319.246 268.063 319.02 268.213 318.841C268.363 318.662 268.57 318.541 268.8 318.499L269.07 318.439C269.291 318.396 269.52 318.429 269.72 318.535C269.92 318.64 270.079 318.811 270.17 319.019C277.69 336.146 284.7 352.369 291.2 367.689C293.34 372.749 296.5 372.469 301.18 372.319C308.75 372.089 309.21 369.419 311.8 363.299C317.953 348.726 324.2 334.182 330.54 319.669C331.393 317.702 331.903 317.789 332.07 319.929ZM110.08 331.439C109.607 329.826 109.92 328.386 111.02 327.119C119.373 317.499 127.503 307.942 135.41 298.449C137.643 295.776 139.437 293.422 140.79 291.389C141.463 290.376 141.193 289.859 139.98 289.839C133.587 289.719 127.193 289.709 120.8 289.809C117.987 289.856 115.707 290.836 113.96 292.749C107.86 299.436 101.62 307.026 95.24 315.519C92.0733 319.726 88.1267 320.972 83.4 319.259C83.2067 319.189 83.0397 319.061 82.9216 318.893C82.8035 318.725 82.7401 318.524 82.74 318.319V290.809C82.7401 290.547 82.6375 290.296 82.4542 290.109C82.271 289.922 82.0217 289.814 81.76 289.809C77.58 289.749 73.4133 289.742 69.26 289.789C64.19 289.849 63.05 292.789 63 297.439C62.78 319.999 62.8033 342.559 63.07 365.119C63.12 369.189 63.6 372.119 68.25 372.209C72.7233 372.302 77.2267 372.312 81.76 372.239C82.0209 372.236 82.2701 372.13 82.4536 371.943C82.6371 371.755 82.74 371.502 82.74 371.239V342.509C82.74 342.299 82.8058 342.096 82.928 341.927C83.0502 341.758 83.2225 341.633 83.42 341.569C89.35 339.589 92.3 342.199 96.25 346.819C103.23 354.999 110.7 363.319 118.66 371.779C118.752 371.877 118.863 371.955 118.987 372.008C119.111 372.062 119.245 372.089 119.38 372.089L144.4 372.329C145.907 372.342 146.16 371.789 145.16 370.669C134.14 358.262 122.997 345.969 111.73 333.789C110.79 332.769 110.24 331.986 110.08 331.439ZM192.18 357.759C195.853 357.926 200.79 357.836 206.99 357.489C219.6 356.789 214.85 371.439 226.13 372.249C231.29 372.622 236.093 372.599 240.54 372.179C240.696 372.164 240.846 372.113 240.979 372.03C241.112 371.946 241.223 371.833 241.304 371.699C241.385 371.564 241.433 371.413 241.444 371.257C241.456 371.1 241.43 370.944 241.37 370.799C231.743 347.646 221.953 324.626 212 301.739C208.82 294.419 206.34 290.369 197.8 289.939C191.14 289.609 182.42 287.639 179.3 295.349C173.787 308.942 163.87 332.796 149.55 366.909C149.003 368.222 148.527 369.572 148.12 370.959C148.077 371.108 148.068 371.265 148.096 371.418C148.124 371.571 148.187 371.715 148.28 371.839C148.373 371.963 148.494 372.064 148.633 372.133C148.772 372.203 148.925 372.239 149.08 372.239C152.487 372.239 155.893 372.352 159.3 372.579C167.09 373.099 172.54 369.719 173.78 361.499C173.813 361.297 173.903 361.109 174.04 360.959C177.99 356.729 186.86 357.529 192.18 357.759ZM482.26 349.769L481.93 291.289C481.93 291.048 481.841 290.815 481.682 290.633C481.522 290.451 481.301 290.333 481.06 290.299C477.047 289.772 472.787 289.596 468.28 289.769C464.88 289.899 462.52 290.769 462.51 294.529C462.47 305.536 462.523 329.866 462.67 367.519C462.677 370.652 464.113 372.236 466.98 372.269C474.46 372.362 491.65 372.396 518.55 372.369C522.763 372.369 525.063 370.372 525.45 366.379C525.97 360.899 528.35 350.189 519.23 350.589C507.237 351.116 495.237 351.172 483.23 350.759C482.972 350.751 482.726 350.644 482.546 350.459C482.365 350.275 482.262 350.027 482.26 349.769ZM650.99 318.859C650.99 316.712 651.597 316.522 652.81 318.289C662.683 332.662 672.047 347.349 680.9 362.349C684.17 367.889 687.45 371.439 694.1 371.899C700.993 372.372 707.673 372.472 714.14 372.199C716.38 372.106 717.497 370.942 717.49 368.709L717.46 291.539C717.46 291.274 717.356 291.019 717.17 290.832C716.984 290.644 716.733 290.539 716.47 290.539L698.66 290.529C698.528 290.529 698.397 290.555 698.275 290.605C698.153 290.656 698.042 290.729 697.949 290.822C697.856 290.915 697.783 291.026 697.733 291.147C697.684 291.268 697.659 291.398 697.66 291.529C697.773 309.542 697.79 327.559 697.71 345.579C697.7 346.959 696.56 347.579 695.75 346.249C685.09 328.622 674.37 311.036 663.59 293.489C662.277 291.356 660.563 290.239 658.45 290.139C649.91 289.746 641.163 289.702 632.21 290.009C631.949 290.019 631.703 290.129 631.522 290.316C631.341 290.502 631.24 290.751 631.24 291.009C631.24 316.376 631.247 341.799 631.26 367.279C631.26 370.406 632.78 372.046 635.82 372.199C638.72 372.352 643.45 372.366 650.01 372.239C650.272 372.234 650.521 372.126 650.704 371.939C650.887 371.752 650.99 371.501 650.99 371.239V318.859Z" fill="black"/>
<path d="M381 372.289C370.7 371.209 365.54 362.329 365 352.709C364.22 338.762 364.193 324.812 364.92 310.859C365.7 296.049 374.04 289.259 388.74 289.309C402.073 289.362 415.407 289.456 428.74 289.589C436.4 289.669 443.8 292.539 447.39 299.249C448.763 301.829 449.62 306.139 449.96 312.179C450.653 324.746 450.653 337.612 449.96 350.779C448.97 369.329 439.84 372.889 422.99 373.119C408.69 373.319 394.11 373.669 381 372.289ZM430.56 319.889C430.558 318.666 430.315 317.456 429.845 316.327C429.376 315.199 428.688 314.173 427.822 313.31C426.956 312.447 425.928 311.764 424.798 311.298C423.668 310.832 422.457 310.593 421.234 310.595L393.874 310.643C392.651 310.645 391.441 310.888 390.313 311.358C389.184 311.828 388.159 312.515 387.296 313.381C386.433 314.247 385.749 315.275 385.283 316.405C384.817 317.535 384.578 318.746 384.58 319.969L384.62 342.529C384.622 343.752 384.865 344.962 385.335 346.091C385.804 347.219 386.492 348.244 387.358 349.107C388.224 349.97 389.252 350.654 390.382 351.12C391.512 351.586 392.723 351.825 393.946 351.823L421.306 351.775C422.528 351.773 423.739 351.53 424.867 351.06C425.996 350.59 427.021 349.903 427.884 349.037C428.747 348.171 429.431 347.143 429.897 346.013C430.363 344.883 430.602 343.671 430.6 342.449L430.56 319.889Z" fill="white"/>
<path d="M544.51 370.559C533.88 365.609 533.59 356.849 533.11 346.649C532.563 335.056 532.633 322.852 533.32 310.039C534.65 285.399 559.45 289.139 576.36 289.389C582.57 289.479 595.04 288.629 603.49 290.299C616.06 292.779 618.07 302.099 618.72 314.139C619.413 326.959 619.38 339.782 618.62 352.609C617.873 365.162 611.223 371.826 598.67 372.599C585.03 373.432 570.14 373.492 554 372.779C550.52 372.619 547.357 371.879 544.51 370.559ZM598.91 320.009C598.914 317.527 597.932 315.144 596.18 313.386C594.427 311.627 592.048 310.637 589.566 310.633L562.486 310.585C560.004 310.581 557.621 311.563 555.863 313.315C554.104 315.068 553.114 317.447 553.11 319.929L553.07 342.429C553.066 344.911 554.048 347.294 555.8 349.052C557.553 350.811 559.932 351.801 562.414 351.805L589.494 351.853C591.976 351.857 594.359 350.875 596.117 349.123C597.876 347.37 598.866 344.991 598.87 342.509L598.91 320.009Z" fill="white"/>
<path d="M332.07 319.929C331.903 317.789 331.393 317.702 330.54 319.669C324.2 334.182 317.953 348.726 311.8 363.299C309.21 369.419 308.75 372.089 301.18 372.319C296.5 372.469 293.34 372.749 291.2 367.689C284.7 352.369 277.69 336.146 270.17 319.019C270.079 318.811 269.92 318.64 269.72 318.535C269.52 318.429 269.291 318.396 269.07 318.439L268.8 318.499C268.57 318.541 268.363 318.662 268.213 318.841C268.063 319.02 267.981 319.246 267.98 319.479C268 335.746 267.987 352.012 267.94 368.279C267.93 371.369 266.19 372.219 263.29 372.259C258.223 372.326 253.623 372.312 249.49 372.219C249.23 372.211 248.983 372.102 248.802 371.916C248.621 371.729 248.52 371.479 248.52 371.219C248.487 347.999 248.48 325.609 248.5 304.049C248.5 301.139 247.99 296.769 248.66 292.929C249.02 290.862 250.25 289.822 252.35 289.809C259.53 289.782 266.797 289.769 274.15 289.769C279.31 289.769 279.31 291.419 280.97 295.429C287.143 310.316 293.373 325.186 299.66 340.039C300.267 341.472 300.88 341.476 301.5 340.049C307.62 325.922 313.48 311.632 319.08 297.179C321.38 291.229 325.53 289.339 331.87 289.699C336.743 289.972 342.453 289.986 349 289.739C351.293 289.652 352.44 290.852 352.44 293.339C352.493 317.446 352.507 341.552 352.48 365.659C352.48 372.109 348.41 372.299 343.27 372.729C334.25 373.469 333.05 371.009 333.21 362.289C333.49 347.729 333.11 333.609 332.07 319.929Z" fill="white"/>
<path d="M110.08 331.439C110.24 331.986 110.79 332.769 111.73 333.789C122.997 345.969 134.14 358.262 145.16 370.669C146.16 371.789 145.907 372.342 144.4 372.329L119.38 372.089C119.245 372.089 119.111 372.062 118.987 372.008C118.863 371.955 118.752 371.877 118.66 371.779C110.7 363.319 103.23 354.999 96.25 346.819C92.3 342.199 89.35 339.589 83.42 341.569C83.2225 341.633 83.0503 341.758 82.9281 341.927C82.8059 342.096 82.74 342.299 82.74 342.509V371.239C82.7401 371.502 82.6371 371.755 82.4536 371.943C82.2701 372.13 82.0209 372.236 81.76 372.239C77.2267 372.312 72.7233 372.302 68.25 372.209C63.6 372.119 63.12 369.189 63.07 365.119C62.8033 342.559 62.78 319.999 63 297.439C63.05 292.789 64.19 289.849 69.26 289.789C73.4133 289.742 77.58 289.749 81.76 289.809C82.0218 289.814 82.271 289.922 82.4542 290.109C82.6375 290.296 82.7401 290.547 82.74 290.809V318.319C82.7401 318.524 82.8035 318.725 82.9216 318.893C83.0397 319.061 83.2067 319.189 83.4 319.259C88.1267 320.972 92.0733 319.726 95.24 315.519C101.62 307.026 107.86 299.436 113.96 292.749C115.707 290.836 117.987 289.856 120.8 289.809C127.193 289.709 133.587 289.719 139.98 289.839C141.193 289.859 141.463 290.376 140.79 291.389C139.437 293.422 137.643 295.776 135.41 298.449C127.503 307.942 119.373 317.499 111.02 327.119C109.92 328.386 109.607 329.826 110.08 331.439Z" fill="white"/>
<path d="M192.18 357.759C186.86 357.529 177.99 356.729 174.04 360.959C173.903 361.109 173.813 361.297 173.78 361.499C172.54 369.719 167.09 373.099 159.3 372.579C155.893 372.352 152.487 372.239 149.08 372.239C148.925 372.239 148.772 372.203 148.633 372.133C148.494 372.064 148.373 371.963 148.28 371.839C148.187 371.715 148.124 371.571 148.096 371.418C148.068 371.265 148.077 371.108 148.12 370.959C148.527 369.572 149.003 368.222 149.55 366.909C163.87 332.796 173.787 308.942 179.3 295.349C182.42 287.639 191.14 289.609 197.8 289.939C206.34 290.369 208.82 294.419 212 301.739C221.953 324.626 231.743 347.646 241.37 370.799C241.43 370.944 241.456 371.1 241.444 371.257C241.433 371.413 241.385 371.564 241.304 371.699C241.223 371.833 241.112 371.946 240.979 372.03C240.847 372.113 240.696 372.164 240.54 372.179C236.093 372.599 231.29 372.622 226.13 372.249C214.85 371.439 219.6 356.789 206.99 357.489C200.79 357.836 195.853 357.926 192.18 357.759ZM182.8 338.909C182.781 338.958 182.774 339.012 182.779 339.065C182.785 339.117 182.803 339.168 182.833 339.212C182.862 339.256 182.902 339.293 182.949 339.318C182.995 339.344 183.047 339.358 183.1 339.359L205.96 339.239C206.013 339.238 206.065 339.224 206.112 339.198C206.158 339.173 206.198 339.136 206.227 339.092C206.257 339.048 206.275 338.997 206.281 338.945C206.287 338.892 206.279 338.838 206.26 338.789L194.69 310.159C194.667 310.095 194.625 310.041 194.569 310.002C194.514 309.963 194.448 309.942 194.38 309.942C194.312 309.942 194.246 309.963 194.191 310.002C194.135 310.041 194.093 310.095 194.07 310.159L182.8 338.909Z" fill="white"/>
<path d="M483.23 350.759C495.237 351.172 507.237 351.116 519.23 350.589C528.35 350.189 525.97 360.899 525.45 366.379C525.063 370.372 522.763 372.369 518.55 372.369C491.65 372.396 474.46 372.362 466.98 372.269C464.113 372.236 462.677 370.652 462.67 367.519C462.523 329.866 462.47 305.536 462.51 294.529C462.52 290.769 464.88 289.899 468.28 289.769C472.787 289.596 477.047 289.772 481.06 290.299C481.301 290.333 481.522 290.451 481.681 290.633C481.841 290.815 481.93 291.048 481.93 291.289L482.26 349.769C482.262 350.027 482.365 350.275 482.546 350.459C482.726 350.644 482.972 350.751 483.23 350.759Z" fill="white"/>
<path d="M650.99 318.859V371.239C650.99 371.501 650.887 371.752 650.704 371.939C650.521 372.126 650.272 372.234 650.01 372.239C643.45 372.366 638.72 372.352 635.82 372.199C632.78 372.046 631.26 370.406 631.26 367.279C631.247 341.799 631.24 316.376 631.24 291.009C631.24 290.751 631.341 290.502 631.522 290.316C631.703 290.129 631.949 290.019 632.21 290.009C641.163 289.702 649.91 289.746 658.45 290.139C660.563 290.239 662.277 291.356 663.59 293.489C674.37 311.036 685.09 328.622 695.75 346.249C696.56 347.579 697.7 346.959 697.71 345.579C697.79 327.559 697.773 309.542 697.66 291.529C697.659 291.398 697.684 291.268 697.733 291.147C697.783 291.026 697.856 290.915 697.949 290.822C698.042 290.729 698.153 290.656 698.275 290.605C698.397 290.555 698.528 290.529 698.66 290.529L716.47 290.539C716.733 290.539 716.984 290.644 717.17 290.832C717.356 291.019 717.46 291.274 717.46 291.539L717.49 368.709C717.497 370.942 716.38 372.106 714.14 372.199C707.673 372.472 700.993 372.372 694.1 371.899C687.45 371.439 684.17 367.889 680.9 362.349C672.047 347.349 662.683 332.662 652.81 318.289C651.597 316.522 650.99 316.712 650.99 318.859Z" fill="white"/>
<path d="M182.8 338.909L194.07 310.159C194.093 310.095 194.135 310.041 194.191 310.002C194.246 309.963 194.312 309.942 194.38 309.942C194.448 309.942 194.514 309.963 194.569 310.002C194.625 310.041 194.667 310.095 194.69 310.159L206.26 338.789C206.279 338.838 206.286 338.892 206.281 338.945C206.275 338.997 206.257 339.048 206.227 339.092C206.198 339.136 206.158 339.173 206.112 339.198C206.065 339.224 206.013 339.238 205.96 339.239L183.1 339.359C183.047 339.358 182.995 339.344 182.948 339.318C182.902 339.293 182.862 339.256 182.833 339.212C182.803 339.168 182.785 339.117 182.779 339.065C182.774 339.012 182.781 338.958 182.8 338.909Z" fill="black"/>
<path d="M421.234 310.595L393.874 310.643C388.732 310.652 384.571 314.827 384.58 319.969L384.62 342.529C384.629 347.671 388.804 351.832 393.946 351.823L421.306 351.775C426.448 351.766 430.609 347.591 430.6 342.449L430.56 319.889C430.551 314.747 426.376 310.586 421.234 310.595Z" fill="black"/>
<path d="M589.566 310.633L562.486 310.585C557.317 310.576 553.119 314.76 553.11 319.929L553.07 342.429C553.061 347.598 557.245 351.796 562.414 351.805L589.494 351.853C594.663 351.862 598.861 347.678 598.87 342.509L598.91 320.009C598.919 314.84 594.735 310.642 589.566 310.633Z" fill="black"/>
<path d="M287.7 643.509C218.77 621.639 162.21 577.699 120.08 519.449C104.113 497.356 91.0199 472.289 80.7999 444.249C79.3799 440.339 75.5899 438.519 71.3499 437.669C52.0766 433.802 32.8133 429.906 13.5599 425.979C13.2599 425.919 12.9599 425.819 12.6599 425.679C9.83325 424.406 9.96992 423.769 13.0699 423.769C263.65 423.782 514.23 423.786 764.81 423.779C766.35 423.779 769.12 423.169 770.51 423.559C773.27 424.319 765.02 426.319 765 426.329C736.433 432.269 717.323 436.142 707.67 437.949C701.02 439.189 700.37 442.309 697.86 448.749C671.9 515.219 627.31 570.649 566.79 608.559C481.48 662.009 384.13 674.109 287.7 643.509ZM147.09 523.799C204.26 594.039 287.44 637.679 378.23 640.749C487.94 644.469 589.41 591.819 650.1 500.669C662.373 482.229 672.287 462.376 679.84 441.109C679.894 440.96 679.912 440.799 679.891 440.642C679.869 440.484 679.81 440.334 679.718 440.203C679.626 440.073 679.503 439.966 679.361 439.892C679.219 439.818 679.06 439.78 678.9 439.779H101.4C101.238 439.78 101.079 439.819 100.935 439.893C100.792 439.967 100.668 440.075 100.575 440.206C100.482 440.337 100.422 440.489 100.4 440.648C100.378 440.807 100.396 440.968 100.45 441.119C111.337 471.412 126.883 498.972 147.09 523.799Z" fill="black"/>
<path d="M211.38 466.229C206.4 465.602 206.41 465.072 211.41 464.639C213.377 464.472 215.427 464.342 217.56 464.249C292.71 460.929 368.1 460.899 443.3 461.309C485.553 461.536 527.783 462.576 569.99 464.429C571.683 464.502 572.94 464.776 573.76 465.249C574.22 465.519 573.39 465.929 573.26 465.939C561.673 466.932 550.063 467.589 538.43 467.909C444.703 470.482 350.973 470.572 257.24 468.179C242.4 467.806 227.57 467.199 212.75 466.359C212.297 466.332 211.84 466.289 211.38 466.229Z" fill="black"/>
<path d="M297.43 494.339C293.363 490.499 293.89 487.879 299.01 486.479C299.139 486.441 299.275 486.43 299.41 486.448C299.544 486.465 299.673 486.51 299.79 486.579C302.33 488.119 305.91 490.569 305.85 493.909C305.83 495.129 305.627 496.319 305.24 497.479C305.197 497.608 305.128 497.728 305.037 497.829C304.946 497.931 304.834 498.013 304.71 498.07C304.585 498.127 304.45 498.158 304.312 498.161C304.175 498.165 304.038 498.14 303.91 498.089C300.983 496.916 298.823 495.666 297.43 494.339Z" fill="black"/>
<path d="M334.07 496.689C333.863 496.822 333.823 497.106 333.95 497.539C336.39 505.972 336.873 513.686 335.4 520.679C334.753 523.746 333.303 524.279 331.05 522.279C328.52 520.039 329.48 500.829 329.51 496.779C329.517 495.492 330.203 494.092 331.57 492.579C331.665 492.475 331.737 492.352 331.781 492.22C331.826 492.087 331.843 491.947 331.83 491.809L331.45 487.959C331.434 487.787 331.463 487.613 331.535 487.455C331.607 487.297 331.718 487.161 331.858 487.059C331.998 486.957 332.162 486.894 332.334 486.874C332.507 486.855 332.681 486.881 332.84 486.949C336.58 488.542 339.383 491.182 341.25 494.869C344.85 501.979 348.01 508.369 352.81 514.779C353.11 515.179 353.27 515.132 353.29 514.639C353.29 514.546 353.267 514.439 353.22 514.319C349.99 506.499 350.35 498.809 351.37 489.559C351.388 489.399 351.446 489.246 351.538 489.111C351.63 488.977 351.755 488.867 351.9 488.789L355.57 486.859C355.722 486.78 355.891 486.742 356.062 486.747C356.233 486.753 356.4 486.802 356.546 486.89C356.693 486.979 356.814 487.103 356.899 487.252C356.983 487.4 357.029 487.568 357.03 487.739L357.02 516.789C357.02 516.947 356.982 517.102 356.911 517.243C356.839 517.384 356.735 517.505 356.607 517.598C356.479 517.69 356.331 517.752 356.175 517.776C356.019 517.801 355.86 517.788 355.71 517.739L355.47 517.659C354.523 517.346 354.183 517.669 354.45 518.629L355.53 522.539C355.601 522.785 355.572 523.05 355.449 523.277C355.325 523.505 355.118 523.677 354.87 523.759C351.903 524.712 349.673 523.889 348.18 521.289C343.547 513.176 339 505.012 334.54 496.799C334.519 496.759 334.49 496.725 334.454 496.697C334.418 496.67 334.377 496.651 334.333 496.64C334.288 496.63 334.242 496.629 334.197 496.637C334.152 496.646 334.108 496.663 334.07 496.689Z" fill="black"/>
<path d="M475.29 513.969C475.136 513.905 475.001 513.803 474.897 513.673C474.792 513.543 474.722 513.389 474.692 513.225C474.662 513.061 474.674 512.893 474.726 512.734C474.778 512.576 474.869 512.433 474.99 512.319L480.79 506.779C480.92 506.655 481.014 506.498 481.062 506.325C481.109 506.152 481.109 505.971 481.06 505.799L476.28 488.249C475.933 486.982 476.373 486.586 477.6 487.059C478.267 487.312 479.09 487.589 480.07 487.889C482.71 488.699 483.04 490.319 483.98 493.109C487.16 502.622 490.277 512.286 493.33 522.099C493.402 522.324 493.389 522.568 493.296 522.786C493.202 523.004 493.034 523.183 492.82 523.289C486.3 526.529 486.13 519.539 482.09 517.279C479.89 516.046 477.623 514.942 475.29 513.969Z" fill="black"/>
<path d="M501.93 506.339C495.68 501.249 494.86 488.899 504.76 487.119C512.61 485.699 507.38 494.859 505.78 497.029C504.78 498.402 505.04 499.466 506.56 500.219C513.09 503.449 523.08 502.619 523.69 512.199C524.063 518.092 520.78 522.149 513.84 524.369C513.708 524.412 513.568 524.427 513.43 524.413C513.292 524.399 513.159 524.357 513.039 524.289C512.918 524.222 512.813 524.13 512.731 524.019C512.649 523.909 512.59 523.783 512.56 523.649C511.45 518.809 513.54 517.229 515.92 513.629C516.051 513.427 516.106 513.186 516.075 512.948C516.043 512.709 515.928 512.49 515.75 512.329C514.817 511.502 513.75 510.732 512.55 510.019C509.14 507.999 504.39 508.349 501.93 506.339Z" fill="black"/>
<path d="M213.31 522.319C211.18 519.479 215.07 517.669 216.96 516.329C217.079 516.244 217.178 516.135 217.251 516.009C217.323 515.883 217.367 515.743 217.38 515.599C217.64 512.666 217.75 508.726 217.71 503.779C217.68 498.699 215.56 496.409 213.42 492.369C210.15 486.159 220.4 486.199 222.97 489.659C223.95 490.979 224.5 493.206 224.62 496.339C224.8 501.159 225.93 518.409 223.03 521.729C220.83 524.239 215.7 525.509 213.31 522.319Z" fill="black"/>
<path d="M376.33 515.619C376.119 515.585 375.924 515.484 375.775 515.331C375.626 515.178 375.529 514.981 375.5 514.769C374.933 510.709 376.81 508.739 381.13 508.859C381.285 508.864 381.439 508.833 381.581 508.768C381.722 508.703 381.846 508.605 381.943 508.484C382.04 508.363 382.107 508.221 382.14 508.069C382.172 507.917 382.169 507.759 382.13 507.609L377.13 488.449C376.823 487.282 377.247 486.882 378.4 487.249C381.72 488.296 383.833 490.236 384.74 493.069C387.953 503.116 391.187 513.172 394.44 523.239C394.84 524.486 394.417 524.902 393.17 524.489L387.62 522.659C387.482 522.612 387.356 522.535 387.251 522.433C387.145 522.331 387.063 522.207 387.01 522.069C384.1 514.559 383.14 516.739 376.33 515.619Z" fill="black"/>
<path d="M437.5 491.919C437.339 491.772 437.232 491.577 437.194 491.361C437.156 491.146 437.19 490.924 437.29 490.729C439.74 485.869 450.37 486.949 457.45 487.499C463.45 487.959 464.15 493.759 457.73 493.889C453.19 493.976 448.653 494.006 444.12 493.979C441.28 493.969 439.82 494.049 437.5 491.919Z" fill="black"/>
<path d="M529.64 492.869C525.99 490.099 529.9 487.599 532.67 487.469C538.95 487.182 545.27 487.152 551.63 487.379C554.117 487.466 554.713 488.576 553.42 490.709C552.093 492.882 550.117 493.942 547.49 493.889C543.163 493.796 538.537 493.869 533.61 494.109C532.137 494.176 530.813 493.762 529.64 492.869Z" fill="black"/>
<path d="M209.89 518.979C212.58 526.009 198.69 526.869 198.39 516.549C198.24 511.099 196.89 497.199 199.52 492.769C201.65 489.209 206.02 485.549 210.15 489.089C210.253 489.178 210.337 489.286 210.396 489.408C210.456 489.53 210.49 489.663 210.497 489.799C210.503 489.935 210.482 490.07 210.435 490.197C210.387 490.325 210.314 490.441 210.22 490.539C207.51 493.359 205.61 496.289 205.4 500.419C205.14 505.466 205.17 510.509 205.49 515.549C205.499 515.709 205.547 515.865 205.629 516.002C205.711 516.14 205.824 516.255 205.96 516.339L209.48 518.489C209.668 518.606 209.812 518.778 209.89 518.979Z" fill="black"/>
<path d="M242.32 491.259C242.214 491.178 242.125 491.076 242.06 490.96C241.994 490.844 241.952 490.716 241.937 490.583C241.922 490.45 241.934 490.316 241.973 490.188C242.011 490.06 242.075 489.942 242.16 489.839C245.01 486.369 250.36 487.039 254.18 489.339C259.93 492.799 259.94 499.199 257.44 504.749C256.32 507.249 254.71 509.449 255.05 512.289C255.383 515.129 256.25 517.909 257.65 520.629C258.623 522.529 258.063 523.679 255.97 524.079C253.39 524.569 251.42 523.349 250.24 520.949C247.89 516.179 247.66 512.379 242.29 509.129C242.127 509.031 241.995 508.889 241.91 508.719C238.66 502.189 245.06 504.729 247.61 503.569C249.497 502.709 250.613 501.056 250.96 498.609C250.984 498.435 250.963 498.258 250.898 498.095C250.833 497.932 250.727 497.788 250.59 497.679L242.32 491.259Z" fill="black"/>
<path d="M269.35 487.369H269.17C267.309 487.369 265.8 488.878 265.8 490.739V519.879C265.8 521.74 267.309 523.249 269.17 523.249H269.35C271.211 523.249 272.72 521.74 272.72 519.879V490.739C272.72 488.878 271.211 487.369 269.35 487.369Z" fill="black"/>
<path d="M289.63 523.859C277.2 527.349 280.31 508.009 280.03 502.129C279.863 498.636 280.05 496.132 280.59 494.619C281.95 490.789 286.58 485.479 291.18 488.369C291.377 488.493 291.525 488.681 291.598 488.902C291.671 489.123 291.664 489.362 291.58 489.579C290.21 493.139 287.96 496.329 287.51 499.999C286.48 508.339 287.45 512.329 291.43 519.579C292.623 521.766 292.023 523.192 289.63 523.859Z" fill="black"/>
<path d="M316.74 523.359C314.973 522.352 314.08 520.802 314.06 518.709C313.92 507.722 313.917 499.099 314.05 492.839C314.09 490.819 314.927 489.182 316.56 487.929C316.705 487.82 316.877 487.752 317.058 487.733C317.24 487.713 317.423 487.743 317.59 487.819C319.817 488.839 320.937 490.346 320.95 492.339C321.05 507.119 321.057 515.929 320.97 518.769C320.903 520.969 319.79 522.519 317.63 523.419C317.487 523.478 317.332 523.503 317.178 523.493C317.024 523.482 316.874 523.436 316.74 523.359Z" fill="black"/>
<path d="M405.1 487.559H402.08C401.058 487.559 400.23 488.387 400.23 489.409V521.909C400.23 522.931 401.058 523.759 402.08 523.759H405.1C406.122 523.759 406.95 522.931 406.95 521.909V489.409C406.95 488.387 406.122 487.559 405.1 487.559Z" fill="black"/>
<path d="M562.5 523.359C560.91 521.959 559.68 520.629 559.57 518.359C559.11 508.546 559.063 498.709 559.43 488.849C559.438 488.644 559.509 488.446 559.633 488.284C559.756 488.121 559.926 488.001 560.12 487.939C561.78 487.399 563.447 487.356 565.12 487.809C565.301 487.861 565.464 487.961 565.591 488.098C565.718 488.236 565.804 488.406 565.84 488.589C566.95 494.479 566.29 501.219 566.44 506.109C566.57 510.369 567.41 520.329 563.81 523.379C563.628 523.535 563.395 523.619 563.154 523.615C562.913 523.611 562.681 523.52 562.5 523.359Z" fill="black"/>
<path d="M235.94 523.669C233.853 522.682 232.75 521.112 232.63 518.959C232.143 510.459 232.073 501.956 232.42 493.449C232.53 490.949 233.43 489.629 235.16 487.979C235.334 487.813 235.563 487.715 235.804 487.704C236.044 487.693 236.281 487.77 236.47 487.919C238.51 489.519 239.2 491.809 239.21 494.509C239.24 500.639 240.86 519.029 237.13 523.409C236.987 523.576 236.793 523.692 236.579 523.739C236.364 523.786 236.14 523.761 235.94 523.669Z" fill="black"/>
<path d="M514.93 495.589C513.083 494.156 512.197 491.902 512.27 488.829C512.275 488.587 512.367 488.356 512.528 488.176C512.69 487.996 512.91 487.88 513.15 487.849C520.363 486.996 523.333 490.119 522.06 497.219C522.017 497.453 521.893 497.665 521.71 497.815C521.526 497.965 521.296 498.045 521.06 498.039C519.033 498.012 516.99 497.196 514.93 495.589Z" fill="black"/>
<path d="M577.18 494.219C573.69 494.819 567.39 494.299 569 488.989C569.061 488.784 569.186 488.604 569.357 488.476C569.528 488.348 569.736 488.279 569.95 488.279H581.26C581.47 488.279 581.674 488.345 581.842 488.467C582.011 488.589 582.137 488.761 582.2 488.959C583.77 493.659 580.71 493.609 577.18 494.219Z" fill="black"/>
<path d="M363.95 523.599C363.706 523.511 363.506 523.331 363.392 523.097C363.278 522.864 363.26 522.596 363.34 522.349L373.35 491.129C373.863 489.529 374.483 489.489 375.21 491.009C375.75 492.149 376.187 493.362 376.52 494.649C378.14 501.019 374.7 507.139 373.13 512.929C371.89 517.499 371.38 526.249 363.95 523.599Z" fill="black"/>
<path d="M463.2 523.369C462.981 523.26 462.809 523.077 462.715 522.852C462.621 522.628 462.612 522.378 462.69 522.149C466.083 512.069 469.353 501.946 472.5 491.779C472.94 490.372 473.72 489.726 474.84 489.839C475.086 489.864 475.314 489.98 475.48 490.164C475.646 490.349 475.739 490.589 475.74 490.839C475.71 495.899 476.21 500.819 474.82 505.739C473.447 510.599 472.04 515.446 470.6 520.279C469.51 523.969 466.51 524.989 463.2 523.369Z" fill="black"/>
<path d="M543.95 519.189C543.89 524.719 538.36 524.979 537.38 520.669C536.41 516.409 536.91 509.539 537.08 505.079C537.28 500.179 537.12 495.909 542.9 495.639C543.035 495.632 543.169 495.653 543.296 495.699C543.422 495.746 543.538 495.818 543.636 495.91C543.734 496.003 543.812 496.114 543.866 496.237C543.92 496.361 543.949 496.494 543.95 496.629C544.023 504.202 544.023 511.722 543.95 519.189Z" fill="black"/>
<path d="M450.172 496.408L449.512 496.41C447.728 496.416 446.287 497.868 446.293 499.651L446.367 520.831C446.373 522.615 447.824 524.056 449.608 524.05L450.268 524.048C452.052 524.042 453.493 522.59 453.487 520.807L453.413 499.627C453.407 497.843 451.956 496.402 450.172 496.408Z" fill="black"/>
<path d="M570.9 507.219C568.74 506.569 567.83 505.439 569.14 503.309C569.223 503.17 569.34 503.054 569.479 502.97C569.619 502.886 569.777 502.838 569.94 502.829L577.85 502.439C578.073 502.428 578.294 502.491 578.476 502.618C578.659 502.744 578.794 502.928 578.86 503.139L580.32 507.909C580.371 508.073 580.378 508.247 580.342 508.414C580.306 508.582 580.228 508.738 580.114 508.866C580.001 508.995 579.856 509.092 579.695 509.148C579.533 509.205 579.359 509.219 579.19 509.189C576.364 508.689 573.6 508.032 570.9 507.219Z" fill="black"/>
<path d="M299.17 512.779L293.67 507.269C293.499 507.097 293.397 506.869 293.382 506.626C293.368 506.384 293.441 506.143 293.59 505.949C295.92 502.919 302.01 503.399 305.57 503.609C305.827 503.622 306.07 503.737 306.245 503.929C306.421 504.121 306.516 504.376 306.51 504.639C306.29 512.259 308.4 520.169 299.45 523.819C299.273 523.891 299.076 523.912 298.88 523.879C295.647 523.246 294.53 522.066 295.53 520.339C296.73 518.286 297.993 516.176 299.32 514.009C299.436 513.818 299.485 513.593 299.457 513.37C299.43 513.147 299.329 512.939 299.17 512.779Z" fill="black"/>
<path d="M500.73 522.509C497.277 519.969 496.953 516.782 499.76 512.949C499.841 512.837 499.946 512.743 500.066 512.674C500.186 512.605 500.32 512.562 500.458 512.548C500.597 512.533 500.737 512.548 500.87 512.592C501.003 512.635 501.126 512.706 501.23 512.799C503.057 514.426 504.92 516.289 506.82 518.389C511.93 524.029 504.76 525.469 500.73 522.509Z" fill="black"/>
<path d="M409.72 521.309C409.622 521.218 409.543 521.109 409.487 520.989C409.431 520.868 409.399 520.738 409.393 520.606C409.388 520.474 409.409 520.342 409.454 520.219C409.5 520.096 409.57 519.984 409.66 519.889C411.5 517.909 413.857 517.202 416.73 517.769C417.71 517.962 419.15 518.602 421.05 519.689C421.187 519.768 421.303 519.878 421.389 520.01C421.475 520.143 421.529 520.294 421.545 520.451C421.562 520.608 421.541 520.766 421.485 520.914C421.428 521.061 421.337 521.193 421.22 521.299L416.14 525.939C415.958 526.109 415.718 526.203 415.468 526.203C415.217 526.203 414.975 526.109 414.79 525.939L409.72 521.309Z" fill="black"/>
<path d="M580.584 517.879L570.448 518.162C569.57 518.186 568.879 518.918 568.903 519.795L568.982 522.614C569.007 523.492 569.738 524.184 570.616 524.159L580.752 523.876C581.63 523.852 582.321 523.12 582.297 522.242L582.218 519.424C582.194 518.546 581.462 517.854 580.584 517.879Z" fill="black"/>
<path d="M210.5 542.619C210.03 542.579 208.8 542.769 209.27 542.159C209.327 542.086 209.398 542.027 209.479 541.984C209.56 541.941 209.649 541.915 209.74 541.909C221.233 541.316 242.13 540.579 272.43 539.699C365.54 536.979 458.79 537.519 551.89 540.669C557.81 540.869 565.83 540.929 572.76 541.599C575.2 541.839 573.05 542.589 572.65 542.619C557.143 543.812 541.613 544.602 526.06 544.989C435.147 547.242 342.683 547.122 248.67 544.629C234.59 544.256 221.867 543.586 210.5 542.619Z" fill="black"/>
<path d="M390.14 610.149C402.539 610.149 412.59 600.098 412.59 587.699C412.59 575.3 402.539 565.249 390.14 565.249C377.741 565.249 367.69 575.3 367.69 587.699C367.69 600.098 377.741 610.149 390.14 610.149Z" fill="black"/>
<path d="M345.21 604.109C354.295 604.109 361.66 596.744 361.66 587.659C361.66 578.574 354.295 571.209 345.21 571.209C336.125 571.209 328.76 578.574 328.76 587.659C328.76 596.744 336.125 604.109 345.21 604.109Z" fill="black"/>
<path d="M435.09 604.109C444.169 604.109 451.53 596.749 451.53 587.669C451.53 578.589 444.169 571.229 435.09 571.229C426.01 571.229 418.65 578.589 418.65 587.669C418.65 596.749 426.01 604.109 435.09 604.109Z" fill="black"/>
</svg>
